<svg xmlns="http://www.w3.org/2000/svg">
  <defs>
    <symbol id="settings" xmlns="http://www.w3.org/2000/svg" viewBox="0 0 32 32">
      <path d="M16,21 C13.243,21 11,18.757 11,16 C11,13.243 13.243,11 16,11 C18.757,11 21,13.243 21,16 C21,18.757 18.757,21 16,21 M27.235,14.471 L24.796,14.102 C24.564,13.025 24.138,12.022 23.559,11.126 L25.026,9.137 C25.324,8.838 25.324,8.354 25.026,8.055 L23.945,6.974 C23.646,6.675 23.162,6.675 22.864,6.974 L20.874,8.441 C19.979,7.862 18.975,7.436 17.898,7.204 L17.529,4.765 C17.529,4.342 17.187,4 16.765,4 L15.235,4 C14.813,4 14.471,4.342 14.471,4.765 L14.102,7.204 C13.025,7.436 12.021,7.862 11.126,8.441 L9.137,6.974 C8.838,6.675 8.354,6.675 8.055,6.974 L6.974,8.055 C6.676,8.354 6.676,8.838 6.974,9.137 L8.441,11.126 C7.862,12.022 7.436,13.025 7.204,14.102 L4.765,14.471 C4.342,14.471 4,14.813 4,15.235 L4,16.765 C4,17.187 4.342,17.529 4.765,17.529 L7.204,17.898 C7.436,18.975 7.862,19.979 8.441,20.874 L6.974,22.863 C6.676,23.162 6.676,23.646 6.974,23.945 L8.055,25.026 C8.354,25.324 8.838,25.324 9.137,25.026 L11.126,23.559 C12.021,24.138 13.025,24.564 14.104,24.796 L14.471,27.235 C14.471,27.658 14.813,28 15.235,28 L16.765,28 C17.187,28 17.529,27.658 17.529,27.235 L17.898,24.796 C18.975,24.564 19.979,24.138 20.874,23.559 L22.864,25.026 C23.162,25.324 23.646,25.324 23.945,25.026 L25.026,23.945 C25.324,23.646 25.324,23.162 25.026,22.863 L23.559,20.874 C24.138,19.979 24.564,18.975 24.796,17.898 L27.235,17.529 C27.658,17.529 28,17.187 28,16.765 L28,15.235 C28,14.813 27.658,14.471 27.235,14.471"></path>
    </symbol>
    <symbol id="connection-error" xmlns="http://www.w3.org/2000/svg" viewBox="0 0 32 32">
      <path d="M18.450267,12.941252 L17.216267,19.019252 C17.099267,19.589252 16.591267,20.000252 16.000267,20.000252 C15.409267,20.000252 14.900267,19.589252 14.784267,19.019252 L13.550267,12.941252 C13.240267,11.420252 14.423267,10.000252 16.000267,10.000252 C17.577267,10.000252 18.760267,11.420252 18.450267,12.941252 M16.000267,25.000252 C15.171267,25.000252 14.498267,24.328252 14.498267,23.500252 C14.498267,22.671252 15.171267,22.000252 16.000267,22.000252 C16.829267,22.000252 17.502267,22.671252 17.502267,23.500252 C17.502267,24.328252 16.829267,25.000252 16.000267,25.000252 M27.663267,14.191252 L16.708267,4.27825203 C16.308267,3.90825203 15.692267,3.90725203 15.292267,4.27525203 L4.340267,14.188252 C3.638267,14.832252 4.095267,16.000252 5.047267,16.000252 L7.013267,16.000252 L7.000267,27.000252 C7.000267,27.552252 7.448267,28.000252 8.001267,28.000252 L23.985267,28.000252 C24.538267,28.000252 24.986267,27.552252 24.986267,27.000252 L25.000267,16.000252 L26.953267,16.000252 C27.903267,16.000252 28.360267,14.836252 27.663267,14.191252"></path>
    </symbol>
  </defs>
</svg>
