<svg xmlns="http://www.w3.org/2000/svg">
<defs>
  <symbol id="classicbulb" xmlns="http://www.w3.org/2000/svg" viewBox="0 0 32 32">
    <path d="M9.5732,13.208 C11.4602,13.805 14.2122,14 16.0002,14 C17.7882,14 20.5402,13.805 22.4272,13.208 C21.6592,15.226 20.3272,16.119 20.0102,18 C19.8722,18.819 19.7552,19.963 19.8332,20.801 C19.8822,21.334 19.4762,21.802 18.9432,21.856 C18.0792,21.945 17.0972,22 16.0002,22 C14.9022,22 13.9212,21.945 13.0562,21.856 C12.5232,21.802 12.1182,21.334 12.1672,20.801 C12.2452,19.963 12.1282,18.819 11.9902,18 C11.6732,16.119 10.3412,15.226 9.5732,13.208 Z M13,22.8623 C14.041,22.9633 15.187,23.0003 16,23.0003 C16.813,23.0003 17.959,22.9633 19,22.8623 L18.499,25.9703 C18.473,26.1883 18.367,26.3903 18.199,26.5433 L17.732,26.9673 C17.701,26.9963 17.672,27.0273 17.645,27.0593 L17.151,27.6423 C16.961,27.8683 16.672,28.0003 16.365,28.0003 L16,28.0003 L15.635,28.0003 C15.328,28.0003 15.039,27.8683 14.849,27.6423 L14.355,27.0593 C14.328,27.0273 14.299,26.9963 14.268,26.9673 L13.801,26.5433 C13.633,26.3903 13.527,26.1883 13.501,25.9703 L13,22.8623 Z M16,4 C19.853,4 23,7.332 23,10.5 C23,10.789 22.945,11.043 22.915,11.305 C22.884,11.561 22.841,11.775 22.788,12.012 C21.698,12.472 19.384,13 16,13 C12.616,13 10.302,12.472 9.212,12.012 C9.159,11.775 9.116,11.561 9.085,11.305 C9.055,11.043 9,10.789 9,10.5 C9,7.332 12.147,4 16,4 Z"/>
  </symbol>
  <symbol id="sultanbulb" xmlns="http://www.w3.org/2000/svg" viewBox="0 0 32 32">
    <path d="M22.3035196,5.39750357 C23.8285196,6.79950357 22.4405196,9.38250357 21.9745196,10.3045036 C20.7175196,10.6705036 18.7055196,10.9995036 15.9995196,10.9995036 C13.2935196,10.9995036 11.2825196,10.6705036 10.0255196,10.3045036 C9.55951963,9.38250357 8.17051963,6.79950357 9.69651963,5.39750357 C11.3275196,3.89850357 15.7245196,4.00150357 15.9995196,4.00150357 C16.2755196,4.00150357 20.6715196,3.89850357 22.3035196,5.39750357 Z M15.9998196,11.9991036 C17.5228196,11.9991036 19.7458196,11.8561036 21.5388196,11.4461036 C20.1808196,15.6651036 19.9478196,19.5241036 19.9938196,20.6221036 C20.0048196,20.8771036 19.9178196,21.1181036 19.7518196,21.3111036 L19.3108196,21.8151036 C18.3588196,21.9281036 17.2558196,21.9991036 15.9998196,21.9991036 C14.7438196,21.9991036 13.6408196,21.9281036 12.6888196,21.8151036 L12.2478196,21.3111036 C12.0818196,21.1181036 11.9948196,20.8771036 12.0058196,20.6221036 C12.0518196,19.5241036 11.8188196,15.6651036 10.4608196,11.4461036 C12.2538196,11.8561036 14.4768196,11.9991036 15.9998196,11.9991036 Z M13.0018196,22.8614036 C14.0438196,22.9624036 15.1898196,22.9994036 16.0038196,22.9994036 C16.8178196,22.9994036 17.9638196,22.9624036 19.0058196,22.8614036 L18.5048196,25.9694036 C18.4788196,26.1874036 18.3728196,26.3894036 18.2048196,26.5424036 L17.7378196,26.9664036 C17.7058196,26.9954036 17.6768196,27.0264036 17.6488196,27.0584036 L17.1558196,27.6414036 C16.9658196,27.8674036 16.6758196,27.9994036 16.3688196,27.9994036 L16.0038196,27.9994036 L15.6388196,27.9994036 C15.3318196,27.9994036 15.0428196,27.8674036 14.8528196,27.6414036 L14.3578196,27.0584036 C14.3308196,27.0264036 14.3018196,26.9954036 14.2708196,26.9664036 L13.8038196,26.5424036 C13.6358196,26.3894036 13.5288196,26.1874036 13.5028196,25.9694036 L13.0018196,22.8614036 Z"/>
  </symbol>
  <symbol id="candlebulb" xmlns="http://www.w3.org/2000/svg" viewBox="0 0 32 32">
    <path d="M20.9687,16.446 C19.9217,16.738 18.2487,17 15.9997,17 C13.7507,17 12.0777,16.738 11.0307,16.446 C11.3497,11.207 14.1167,4 15.9997,4 C17.8827,4 20.6507,11.207 20.9687,16.446 Z M20.998,17.4694 C20.998,17.5124 21,17.5574 21,17.5994 C21,20.0734 20.239,21.8274 19.27,22.7874 C18.373,22.9144 17.279,22.9994 16,22.9994 C14.721,22.9994 13.627,22.9144 12.729,22.7874 C11.761,21.8274 11,20.0734 11,17.5994 C11,17.5574 11.002,17.5124 11.002,17.4694 C12.549,17.8664 14.62,17.9994 16,17.9994 C17.38,17.9994 19.451,17.8664 20.998,17.4694 Z M13.5,23.8903 C14.367,23.9693 15.322,23.9993 16,23.9993 C16.678,23.9993 17.633,23.9693 18.5,23.8903 L18.083,26.3753 C18.061,26.5503 17.973,26.7123 17.833,26.8343 L17.444,27.1733 C17.418,27.1973 17.393,27.2213 17.37,27.2463 L16.959,27.7143 C16.801,27.8943 16.56,27.9993 16.305,27.9993 L16,27.9993 L15.695,27.9993 C15.44,27.9993 15.199,27.8943 15.041,27.7143 L14.63,27.2463 C14.607,27.2213 14.582,27.1973 14.556,27.1733 L14.167,26.8343 C14.027,26.7123 13.939,26.5503 13.917,26.3753 L13.5,23.8903 Z"></path>
  </symbol>
  <symbol id="floodblub" xmlns="http://www.w3.org/2000/svg" viewBox="0 0 32 32">
    <path d="M8.1699,10.0847 C10.2199,10.7047 13.1699,10.9997 15.9999,10.9997 C18.8299,10.9997 21.7799,10.7047 23.8299,10.0847 L20.2109,14.3627 C19.8609,14.7747 19.6629,15.2937 19.6459,15.8337 L19.5019,20.9477 C19.4859,21.4647 19.0799,21.8807 18.5639,21.9157 C17.7739,21.9687 16.9199,21.9997 15.9999,21.9997 C15.0799,21.9997 14.2269,21.9687 13.4369,21.9157 C12.9199,21.8807 12.5139,21.4647 12.4979,20.9477 L12.3549,15.8337 C12.3369,15.2937 12.1389,14.7747 11.7889,14.3627 L8.1699,10.0847 Z M25,6.653 L25,6.654 L25,7.344 L25,7.345 L25,7.346 L25,7.604 C25,7.956 24.938,8.302 24.819,8.628 C23.554,9.278 20.542,10 16,10 C11.458,10 8.446,9.278 7.181,8.628 C7.063,8.301 7,7.956 7,7.604 L7,7.346 L7,7.344 L7,6.654 L7,6.653 C7,6.472 7.06,6.292 7.18,6.122 C8.01,4.912 11.65,4 16,4 C20.97,4 25,5.188 25,6.653 Z M13,22.862 C14.041,22.963 15.187,23 16,23 C16.813,23 17.959,22.963 19,22.862 L18.499,25.97 C18.473,26.188 18.367,26.39 18.199,26.543 L17.732,26.967 C17.701,26.996 17.672,27.027 17.645,27.059 L17.151,27.642 C16.961,27.868 16.672,28 16.365,28 L16,28 L15.635,28 C15.328,28 15.039,27.868 14.849,27.642 L14.355,27.059 C14.328,27.027 14.299,26.996 14.268,26.967 L13.801,26.543 C13.633,26.39 13.527,26.188 13.501,25.97 L13,22.862 Z"></path>
  </symbol>
  <symbol id="spotbulb" xmlns="http://www.w3.org/2000/svg" viewBox="0 0 32 32">
    <path d="M16,5 C20.97,5 25,6.188 25,7.653 C25,9.117 20.97,10.306 16,10.306 C11.03,10.306 7,9.117 7,7.653 C7,7.473 7.06,7.292 7.18,7.122 C8.01,5.912 11.65,5 16,5 Z M8.2148,10.0869 C10.3828,11.0069 13.6888,11.3059 15.9998,11.3059 C18.3118,11.3059 21.6168,11.0069 23.7848,10.0869 C23.4568,12.0059 22.6478,14.6319 20.2238,16.3809 C20.0208,16.5679 19.9998,16.8809 19.9998,17.5059 L19.9998,21.1919 C19.9998,21.6689 19.8468,22.1379 19.5338,22.4919 C19.0338,23.0589 17.9588,23.4919 15.9998,23.4919 C14.0408,23.4919 12.9658,23.0589 12.4658,22.4919 C12.1528,22.1379 11.9998,21.6689 11.9998,21.1919 L11.9998,17.5059 C11.9998,16.8809 11.9798,16.5679 11.7768,16.3809 C9.3528,14.6319 8.5428,12.0059 8.2148,10.0869 Z M17,26 L17,24.458 C17.894,24.375 18.548,24.184 19,23.925 L19,26 C19,26.55 18.55,27 18,27 C17.45,27 17,26.55 17,26 Z M13,26 L13,23.925 C13.452,24.184 14.106,24.375 15,24.458 L15,26 C15,26.55 14.55,27 14,27 C13.45,27 13,26.55 13,26 Z"></path>
  </symbol>
  <symbol id="vintagebulb" xmlns="http://www.w3.org/2000/svg" viewBox="0 0 32 32">
    <path d="M16,2 C22.627,2 28,2.895 28,4 L28,28 C28,29.104 22.627,30 16,30 C9.373,30 4,29.104 4,28 L4,4 C4,2.895 9.373,2 16,2 Z M25.6,26.366 L25.6,10 L6,10 L6,26.366 C6,27.268 10.588,28 16,28 C21.413,28 25.6,27.268 25.6,26.366 Z M10.4916,20.3395 C12.1086,20.8345 14.4676,20.9975 16.0006,20.9975 C17.5336,20.9975 19.8916,20.8345 21.5096,20.3395 C20.8506,22.0155 19.7096,22.7565 19.4376,24.3185 C19.3196,24.9985 19.2196,25.3085 19.2856,26.0035 C19.3276,26.4465 18.9796,26.8355 18.5236,26.8805 C17.7826,26.9545 16.9406,26.9995 16.0006,26.9995 C15.0596,26.9995 14.2186,26.9545 13.4766,26.8805 C13.0206,26.8355 12.6736,26.4465 12.7156,26.0035 C12.7816,25.3085 12.6806,24.9985 12.5626,24.3185 C12.2916,22.7565 11.1496,22.0155 10.4916,20.3395 Z M10.182,18.652 C10.137,18.456 10.1,18.277 10.073,18.065 C10.047,17.848 10,17.637 10,17.397 C10,14.766 12.698,12 16,12 C19.303,12 22,14.766 22,17.397 C22,17.637 21.953,17.848 21.928,18.065 C21.901,18.277 21.864,18.456 21.819,18.652 C20.884,19.034 18.901,19.473 16,19.473 C13.1,19.473 11.117,19.034 10.182,18.652 Z"></path>
  </symbol>
  <symbol id="huebloom" xmlns="http://www.w3.org/2000/svg" viewBox="0 0 32 32">
    <path d="M25.6928374,24.5571163 C23.645743,23.6311163 19.2446901,21.0341163 15.1664944,16.9531163 C10.9583562,12.7441163 8.28353956,8.31911625 7.45690528,6.32711625 C7.29597648,5.93911625 7.63782524,5.54211625 8.04564481,5.64411625 C8.61439318,5.78511625 9.37105842,6.05811625 10.3266357,6.57711625 C15.6472817,9.45811625 22.5862118,16.3801163 25.478932,21.6931163 C25.9877069,22.6261163 26.2525897,23.4031163 26.3815327,24.0051163 C26.4674946,24.3991163 26.0586755,24.7231163 25.6928374,24.5571163 M26.7963491,20.9751163 C23.7486975,15.3791163 16.6448404,8.29311625 11.0413195,5.25711625 C9.34207125,4.33711625 7.99566692,4.00011625 7.02509632,4.00011625 C7.02509632,4.00011625 6.40936873,3.98911625 5.93557834,4.18111625 C4.69312803,4.71711625 4.01142962,6.18811625 4.01142962,9.41511625 C4.01142962,13.3511163 5.65070438,17.1881163 8.20057627,20.3441163 L4.1753571,26.4151163 C3.72255743,27.0801163 4.19934649,27.9811163 5.00299094,27.9791163 L11.6030709,27.9561163 C12.269776,27.9541163 12.8915009,27.6201163 13.2603377,27.0661163 L14.2648933,25.5581163 C16.914721,27.0961163 19.8154376,28.0001163 22.6381888,28.0001163 C25.0401261,28.0001163 26.5794451,27.4211163 27.5740051,26.4111163 C28.1587464,25.8641163 28.3416655,23.8161163 26.7963491,20.9751163"></path>
  </symbol>
  <symbol id="huego" xmlns="http://www.w3.org/2000/svg" viewBox="0 0 32 32">
    <path d="M22.869,21.0120507 C19.01,18.2850507 13.734,13.0070507 11.007,9.14205068 C8.24,5.22405068 9.082,4.16705068 12.97,6.86505068 C16.912,9.60005068 22.395,15.0870507 25.132,19.0350507 C27.831,22.9290507 26.781,23.7770507 22.869,21.0120507 M26.5,18.6890507 C23.719,14.1410507 17.855,8.27405068 13.315,5.49405068 C11.162,4.17705068 9.67,3.73605068 8.97,4.15005068 C5.984,6.57405068 4,10.6230507 4,14.7710507 C4,18.8930507 5.885,22.5740507 8.838,24.9990507 L8.5,24.9990507 C7.675,24.9990507 7,25.6740507 7,26.4990507 C7,27.3240507 7.675,27.9990507 8.5,27.9990507 L16.371,27.9990507 C16.468,27.9990507 16.561,27.9890507 16.652,27.9710507 C16.842,27.9790507 17.028,27.9990507 17.219,27.9990507 C21.309,27.9990507 25.427,25.9640507 27.851,23.0440507 C28.264,22.3410507 27.819,20.8450507 26.5,18.6890507"></path>
  </symbol>
  <symbol id="hueplay" xmlns="http://www.w3.org/2000/svg" viewBox="0 0 32 32">
    <path d="M29.85,18.441 C27.583,19.562 25.355,18.729 23.865,18.142 C22.633,17.657 2.062,9.175 2.062,9.175 C2.062,9.175 0.164,8.328 2.236,7.575 C4.792,6.645 6.855,7.417 9.241,8.375 C10.744,8.979 29.303,16.43 29.303,16.43 C29.303,16.43 32.117,17.32 29.85,18.441 Z M31.997,17.494 C31.979,16.978 31.712,16.061 30.19,15.435 L8.237,6.621 C7.308,6.239 5.849,6 4.436,6 C3.707,6 2.663,6.067 1.826,6.389 C0.35,6.957 0.052,7.802 0.016,8.309 L0.008,8.307 L0,14.366 L0.006,14.367 C0.036,14.854 0.3,15.628 1.561,16.167 L24.1,25.437 C24.946,25.797 26.062,26 27.233,26 C28.407,26 29.514,25.795 30.35,25.426 C31.793,24.788 31.998,23.866 31.993,23.373 L32,17.495 L31.997,17.494 Z"></path>
  </symbol>
  <symbol id="hueiris" xmlns="http://www.w3.org/2000/svg" viewBox="0 0 32 32">
    <path d="M25.5963714,18.3262574 C24.0613714,17.8292574 21.8043714,16.3522574 18.7423714,13.2892574 C16.2863714,10.8352574 14.3593714,8.12425745 13.7353714,6.45925745 C13.6003714,6.09925745 13.9233714,5.73225745 14.3003714,5.80525745 C14.6873714,5.88025745 15.2163714,6.04225745 15.9033714,6.36225745 C17.7513714,7.22225745 19.4493714,8.34025745 21.5703714,10.4612574 C23.6913714,12.5822574 24.8083714,14.2792574 25.6683714,16.1282574 C25.9953714,16.8292574 26.1583714,17.3652574 26.2303714,17.7552574 C26.2983714,18.1232574 25.9523714,18.4412574 25.5963714,18.3262574 M22.0383714,22.5102574 C21.9703714,22.7212574 21.7743714,22.8552574 21.5633714,22.8552574 C21.5123714,22.8552574 21.4603714,22.8472574 21.4093714,22.8312574 C20.0353714,22.3872574 18.3243714,21.2742574 16.3833714,19.5782574 C14.0863714,20.8372574 10.3313714,22.3272574 10.4283714,22.9692574 C10.6143714,24.1962574 9.87837144,24.8752574 8.49237144,23.4892574 C7.10737144,22.1032574 7.78537144,21.3682574 9.01437144,21.5542574 C9.65837144,21.6512574 11.1553714,17.8472574 12.4203714,15.5552574 C10.9113714,13.7592574 9.71737144,11.9542574 9.23437144,10.6642574 C9.13637144,10.4052574 9.26837144,10.1172574 9.52637144,10.0202574 C9.78237144,9.92025745 10.0723714,10.0542574 10.1693714,10.3122574 C10.8013714,11.9972574 12.7673714,14.6712574 15.0623714,16.9662574 C18.4343714,20.3382574 20.5423714,21.4992574 21.7173714,21.8802574 C21.9803714,21.9652574 22.1233714,22.2472574 22.0383714,22.5102574 M27.2473714,15.7312574 C25.3283714,11.6092574 20.4093714,6.65425745 16.3353714,4.73925745 C14.6743714,3.95925745 13.4353714,3.82225745 12.6833714,4.20725745 C12.5903714,4.26525745 12.4993714,4.33025745 12.4083714,4.39025745 C11.4013714,5.05525745 10.4263714,5.82625745 9.52137144,6.73025745 C3.88037144,12.3602574 1.65337144,19.2642574 7.21737144,24.8192574 C12.7083714,30.3022574 19.6983714,28.1502574 25.3373714,22.5192574 C26.2293714,21.6302574 26.9913714,20.6742574 27.6493714,19.6852574 C27.6903714,19.6242574 27.7323714,19.5632574 27.7723714,19.5022574 C28.1853714,18.7422574 28.0513714,17.4582574 27.2473714,15.7312574"></path>
  </symbol>
  <symbol id="huelightstrip" xmlns="http://www.w3.org/2000/svg" viewBox="0 0 32 32">
    <path d="M8.4395,16.668 C8.9795,16.552 9.5115,16.895 9.6285,17.435 C9.7455,17.974 9.4025,18.506 8.8625,18.623 C8.3225,18.74 7.7905,18.397 7.6735,17.857 C7.5565,17.317 7.9005,16.785 8.4395,16.668 M13.3275,15.611 C13.8665,15.495 14.3985,15.838 14.5155,16.377 C14.6325,16.917 14.2895,17.449 13.7505,17.566 C13.2105,17.683 12.6775,17.34 12.5605,16.8 C12.4445,16.261 12.7875,15.729 13.3275,15.611 M18.2135,14.555 C18.7535,14.438 19.2865,14.781 19.4025,15.32 C19.5195,15.86 19.1765,16.393 18.6365,16.51 C18.0965,16.626 17.5645,16.283 17.4485,15.743 C17.3315,15.203 17.6735,14.671 18.2135,14.555 M23.1005,13.498 C23.6405,13.381 24.1725,13.724 24.2905,14.264 C24.4065,14.804 24.0635,15.336 23.5235,15.453 C22.9835,15.569 22.4515,15.227 22.3355,14.687 C22.2175,14.147 22.5615,13.614 23.1005,13.498 M10.6695,20.639 L25.4735,17.444 C26.5535,17.211 27.2405,16.147 27.0065,15.067 C26.4495,12.484 23.9035,10.842 21.3205,11.399 L6.5165,14.594 C5.4365,14.827 4.7505,15.891 4.9835,16.971 C5.5415,19.554 8.0865,21.196 10.6695,20.639 M25,26 C24.447,26 24,25.553 24,25 C24,24.447 24.447,24 25,24 C25.553,24 26,24.447 26,25 C26,25.553 25.553,26 25,26 M20,26 C19.447,26 19,25.553 19,25 C19,24.447 19.447,24 20,24 C20.553,24 21,24.447 21,25 C21,25.553 20.553,26 20,26 M15,26 C14.447,26 14,25.553 14,25 C14,24.447 14.447,24 15,24 C15.553,24 16,24.447 16,25 C16,25.553 15.553,26 15,26 M10,26 C9.447,26 9,25.553 9,25 C9,24.447 9.447,24 10,24 C10.553,24 11,24.447 11,25 C11,25.553 10.553,26 10,26 M27,22 L9,22 C5,22 4,19 4,18 L4,23 C4,25.762 6.238,28 9,28 L27,28 C27.553,28 28,27.553 28,27 L28,23 C28,22.447 27.553,22 27,22 M22,8 C21.447,8 21,7.553 21,7 C21,6.447 21.447,6 22,6 C22.553,6 23,6.447 23,7 C23,7.553 22.553,8 22,8 M17,8 C16.447,8 16,7.553 16,7 C16,6.447 16.447,6 17,6 C17.553,6 18,6.447 18,7 C18,7.553 17.553,8 17,8 M12,8 C11.447,8 11,7.553 11,7 C11,6.447 11.447,6 12,6 C12.553,6 13,6.447 13,7 C13,7.553 12.553,8 12,8 M7,8 C6.447,8 6,7.553 6,7 C6,6.447 6.447,6 7,6 C7.553,6 8,6.447 8,7 C8,7.553 7.553,8 7,8 M23,4 L5,4 C4.447,4 4,4.447 4,5 L4,9 C4,9.553 4.447,10 5,10 L23,10 C27,10 28,13 28,14 L28,9 C28,6.238 25.762,4 23,4"></path>
  </symbol>
  <symbol id="hueplay" xmlns="http://www.w3.org/2000/svg" viewBox="0 0 32 32">
    <path d="M29.85,18.441 C27.583,19.562 25.355,18.729 23.865,18.142 C22.633,17.657 2.062,9.175 2.062,9.175 C2.062,9.175 0.164,8.328 2.236,7.575 C4.792,6.645 6.855,7.417 9.241,8.375 C10.744,8.979 29.303,16.43 29.303,16.43 C29.303,16.43 32.117,17.32 29.85,18.441 Z M31.997,17.494 C31.979,16.978 31.712,16.061 30.19,15.435 L8.237,6.621 C7.308,6.239 5.849,6 4.436,6 C3.707,6 2.663,6.067 1.826,6.389 C0.35,6.957 0.052,7.802 0.016,8.309 L0.008,8.307 L0,14.366 L0.006,14.367 C0.036,14.854 0.3,15.628 1.561,16.167 L24.1,25.437 C24.946,25.797 26.062,26 27.233,26 C28.407,26 29.514,25.795 30.35,25.426 C31.793,24.788 31.998,23.866 31.993,23.373 L32,17.495 L31.997,17.494 Z"></path>
  </symbol>
  <symbol id="bollard" xmlns="http://www.w3.org/2000/svg" viewBox="0 0 32 32">
    <path d="M21,12.5 C21,13.33 18.76,14 16,14 C13.24,14 11,13.33 11,12.5 L11,8.296 C11,8.053 11.265,7.921 11.47,8.052 C12.268,8.562 13.997,9 16,9 C18.003,9 19.732,8.562 20.53,8.052 C20.735,7.921 21,8.053 21,8.296 L21,12.5 Z M13.342,5.278 C14.942,4.907 17.398,4.907 18.883,5.278 C20.4,5.658 20.379,6.291 18.773,6.692 C17.133,7.103 14.523,7.103 13.011,6.692 C11.53,6.291 11.706,5.658 13.342,5.278 Z M20.33,4.48 C19.22,4.16 17.74,4 16.23,4 C14.73,4 13.21,4.16 12.01,4.48 C10.689,4.83 10,5.31 10,5.79 L10,26.35 C10,26.75 10.5,27.15 11.52,27.47 C12.66,27.82 14.2,28 15.77,28 C17.34,28 18.93,27.82 20.16,27.47 C21.39,27.12 22,26.66 22,26.21 L22,5.65 C22,5.22 21.439,4.8 20.33,4.48 Z"></path>
  </symbol>
  <symbol id="ceilinground" xmlns="http://www.w3.org/2000/svg" viewBox="0 0 32 32">
    <path d="M23.163,20.2435 C19.233,21.2515 12.778,21.2515 8.845,20.2435 C4.966,19.2495 5.085,17.6675 9.014,16.7085 C12.889,15.7635 19.1,15.7635 22.979,16.7085 C26.912,17.6675 27.038,19.2495 23.163,20.2435 M27.925,12.0015 C27.633,11.2515 26.44,10.5315 24.378,9.9615 C19.72,8.6795 12.265,8.6795 7.615,9.9615 C5.553,10.5315 4.367,11.2515 4.075,12.0015 C4.022,12.1285 4,12.2485 4,12.3765 L4,16.6265 C4,16.7535 4.022,19.8815 4.075,20.0015 C4.36,20.7215 5.463,21.4185 7.412,21.9805 C12.13,23.3395 19.878,23.3395 24.595,21.9805 C26.537,21.4185 27.64,20.7215 27.925,20.0015 C27.977,19.8815 28,19.7535 28,19.6265 L28,12.3765 C28,12.2485 27.977,12.1285 27.925,12.0015"></path>
  </symbol>
  <symbol id="ceilingsquare" xmlns="http://www.w3.org/2000/svg" viewBox="0 0 32 32">
    <path d="M23.802,18.22975 L16.632,20.88375 C16.223,21.03675 15.778,21.03675 15.368,20.88375 L8.198,18.22975 C7.932,18.13075 7.935,17.72075 8.202,17.62675 L15.397,15.11075 C15.789,14.97175 16.211,14.97175 16.604,15.11075 L23.798,17.62675 C24.066,17.72075 24.069,18.13075 23.802,18.22975 M27.471,13.25875 L16.631,9.11775 C16.222,8.96075 15.779,8.96075 15.369,9.11775 L4.53,13.25875 C4.214,13.37875 4,13.73375 4,14.13475 L4,17.84775 C4,18.24975 4.214,18.60375 4.53,18.72375 L15.369,22.88275 C15.779,23.03975 16.222,23.03975 16.631,22.88275 L27.471,18.72375 C27.786,18.60375 28,18.24975 28,17.84775 L28,14.13475 C28,13.73375 27.786,13.37875 27.471,13.25875"></path>
  </symbol>
  <symbol id="flexiblelamp" xmlns="http://www.w3.org/2000/svg" viewBox="0 0 32 32">
    <path d="M22.861065,9.736 C24.760065,9.098 25.128065,9.618 23.639065,10.921 C22.130065,12.241 19.323065,13.834 17.413065,14.454 C15.530065,15.066 15.269065,14.486 16.789065,13.183 C18.287065,11.897 20.988065,10.365 22.861065,9.736 M17.045065,16.714 C19.783065,15.956 23.716065,13.722 25.768065,11.762 C26.806065,10.771 27.146065,10.054 26.869065,9.694 C24.920065,6.49 21.067065,5.17 17.880065,6.537 C17.927065,6.365 17.962065,6.187 17.962065,6 C17.962065,4.895 17.066065,4 15.962065,4 C14.857065,4 13.962065,4.895 13.962065,6 C13.962065,6.983 14.673065,7.797 15.609065,7.965 L6.29706497,16.884 C6.11006497,17.063 6.00306497,17.31 6.00006497,17.568 C5.99706497,17.827 6.09806497,18.076 6.28206497,18.258 L12.218065,24.195 C11.663065,24.276 11.131065,24.376 10.668065,24.508 C9.69306497,24.79 9.14106497,25.138 8.99906497,25.499 C8.97306497,25.558 8.96206497,25.623 8.96206497,25.686 L8.96206497,26.311 C8.96206497,26.375 8.97306497,26.435 8.99906497,26.499 C9.14506497,26.874 9.73806497,27.234 10.769065,27.519 C13.094065,28.16 16.822065,28.16 19.150065,27.519 C20.181065,27.234 20.778065,26.874 20.924065,26.499 C20.950065,26.435 20.962065,26.375 20.962065,26.311 L20.962065,25.686 C20.962065,25.623 20.950065,25.558 20.924065,25.499 C20.782065,25.138 20.230065,24.79 19.259065,24.508 C18.025065,24.154 16.378065,23.989 14.748065,24.006 L8.33706497,17.593 L13.818065,12.342 C13.704065,13.75 13.979065,15.225 14.696065,16.589 C14.855065,17.021 15.647065,17.101 17.045065,16.714"></path>
  </symbol>
  <symbol id="floorlantern" xmlns="http://www.w3.org/2000/svg" viewBox="0 0 32 32">
    <path d="M18.5234,13.383 C17.0904,12.88 14.9094,12.88 13.4774,13.383 L12.2654,4.766 C14.6374,5.067 17.3634,5.067 19.7344,4.767 L18.5234,13.383 Z M22.4404,0.756 C18.8994,-0.252 13.0894,-0.252 9.5534,0.756 C6.0664,1.75 6.1794,3.332 9.7184,4.291 C9.8674,4.331 10.0384,4.36 10.1934,4.397 L11.7654,15.572 C11.8834,16.009 12.5424,16.53 14.0004,16.811 L14.0004,29.151 C13.0254,29.31 12.3094,29.58 12.0804,29.901 C12.0264,29.972 12.0004,30.049 12.0004,30.125 L12.0004,30.875 C12.0004,31.496 13.7914,32 16.0004,32 C18.2094,32 20.0004,31.496 20.0004,30.875 L20.0004,30.125 C20.0004,29.71 19.1904,29.352 18.0004,29.156 L18.0004,16.812 C19.4524,16.53 20.0834,16.008 20.2344,15.574 L21.8064,4.398 C21.9634,4.361 22.1374,4.331 22.2884,4.291 C25.8244,3.332 25.9314,1.75 22.4404,0.756 Z"></path>
  </symbol>
  <symbol id="floorshade" xmlns="http://www.w3.org/2000/svg" viewBox="0 0 32 32">
    <path d="M12.419,2.3025 C14.383,1.8995 17.611,1.8995 19.578,2.3025 C21.518,2.6995 21.458,3.3325 19.493,3.7165 C17.556,4.0945 14.45,4.0945 12.511,3.7165 C10.544,3.3325 10.482,2.6995 12.419,2.3025 M20.892,12.4315 C22.095,12.0945 22.785,11.6685 22.956,11.2265 C22.987,11.1505 23,11.0795 23,11.0045 L23,1.9925 C23,1.9175 22.987,1.8425 22.956,1.7715 C22.79,1.3455 22.147,0.9335 21.01,0.6015 C18.258,-0.2005 13.738,-0.2005 10.986,0.6015 C9.854,0.9335 9.21,1.3455 9.044,1.7715 C9.013,1.8425 9,1.9175 9,1.9925 L9,11.0045 C9,11.0795 9.013,11.1505 9.044,11.2265 C9.215,11.6685 9.91,12.0945 11.113,12.4315 C12.213,12.7385 13.582,12.9135 15,12.9725 L15,27.0235 C12.073,27.1365 9.721,27.7315 9.14,28.4995 C9.047,28.6195 9,28.7465 9,28.8745 L9,30.1245 C9,31.1595 12.135,31.9995 16,31.9995 C19.865,31.9995 23,31.1595 23,30.1245 L23,28.8745 C23,27.9315 20.391,27.1515 17,27.0215 L17,12.9725 C18.42,12.9145 19.791,12.7395 20.892,12.4315"></path>
  </symbol>
  <symbol id="groundspot" xmlns="http://www.w3.org/2000/svg" viewBox="0 0 32 32">
    <path d="M21.7486468,14.2865312 C20.5556468,14.7075312 18.9546468,13.2575312 18.1746468,11.0465312 C17.3946468,8.83553118 17.7296468,6.70153118 18.9246468,6.28053118 C20.1176468,5.85853118 21.7186468,7.30853118 22.4986468,9.51953118 C23.2786468,11.7305312 22.9426468,13.8645312 21.7486468,14.2865312 M24.3716468,8.85553118 C23.2056468,5.61553118 20.8136468,3.48953118 19.0286468,4.10653118 L7.15364681,9.62853118 C5.79964681,10.1555312 5.60964681,12.8295312 6.73164681,15.6015312 C7.85264681,18.3745312 10.1606468,20.3505312 11.5156468,19.8235312 L13.0036468,19.2775312 L13.0036468,23.0235312 C10.0766468,23.1375312 7.72564681,23.7315312 7.14464681,24.5005312 C7.05164681,24.6205312 7.00464681,24.7475312 7.00464681,24.8755312 L7.00464681,26.1255312 C7.00464681,27.1605312 10.1386468,28.0005312 14.0026468,28.0005312 C17.8676468,28.0005312 21.0006468,27.1605312 21.0006468,26.1255312 L21.0006468,24.8755312 C21.0006468,23.9325312 18.3926468,23.1515312 15.0026468,23.0215312 L15.0026468,18.6065312 L23.2506468,15.8415312 C25.0356468,15.2235312 25.5366468,12.0955312 24.3716468,8.85553118"></path>
  </symbol>
  <symbol id="pendantlong" xmlns="http://www.w3.org/2000/svg" viewBox="0 0 32 32">
    <path d="M28.245,16.159 L8.378,22.829 C8.16,22.902 7.925,22.897 7.71,22.816 L3.786,21.334 C3.521,21.234 3.528,20.854 3.797,20.764 L23.664,14.095 C23.882,14.021 24.117,14.026 24.331,14.107 L28.256,15.589 C28.52,15.689 28.514,16.068 28.245,16.159 M31.351,10.716 L24.331,8.064 C24.117,7.983 23.882,7.978 23.664,8.052 L17,10.289 L17,4.749 L17,4.469 C17,4.21 16.553,4 16,4 C15.447,4 15,4.21 15,4.469 L15,4.749 L15,10.961 L0.683,15.766 C0.275,15.904 0,16.289 0,16.722 L0,21.342 C0,21.762 0.259,22.137 0.648,22.284 L7.669,24.935 C7.883,25.016 8.118,25.021 8.336,24.948 L31.316,17.233 C31.724,17.096 32,16.711 32,16.277 L32,11.658 C32,11.238 31.741,10.863 31.351,10.716"></path>
  </symbol>
  <symbol id="pendantround" xmlns="http://www.w3.org/2000/svg" viewBox="0 0 32 32">
    <path d="M23.163,22.244 C19.233,23.252 12.778,23.252 8.845,22.244 C4.966,21.25 5.085,19.668 9.014,18.709 C12.889,17.764 19.1,17.764 22.978,18.709 C26.912,19.668 27.038,21.25 23.163,22.244 M27.925,14.002 C27.633,13.252 26.44,12.532 24.378,11.962 C22.308,11.391 19.684,11.076 17,11.014 L17,6.749 L17,6.469 C17,6.21 16.553,6 16,6 C15.447,6 15,6.21 15,6.469 L15,6.749 L15,11.014 C12.312,11.076 9.685,11.39 7.615,11.962 C5.553,12.532 4.367,13.252 4.075,14.002 C4.022,14.129 4,14.249 4,14.377 L4,21.627 C4,21.754 4.022,21.882 4.075,22.002 C4.36,22.722 5.463,23.419 7.412,23.981 C12.13,25.34 19.878,25.34 24.595,23.981 C26.537,23.419 27.64,22.722 27.925,22.002 C27.977,21.882 28,21.754 28,21.627 L28,14.377 C28,14.249 27.977,14.129 27.925,14.002"></path>
  </symbol>
  <symbol id="recessedceiling" xmlns="http://www.w3.org/2000/svg" viewBox="0 0 32 32">
    <path d="M15.9931276,10.99975 C12.5611276,10.99975 9.29312763,11.61575 6.78912763,12.73375 C5.58712763,13.27075 4.68612763,13.86575 4.00312763,14.47075 C3.93012763,13.03475 5.13512763,11.59375 7.60612763,10.51875 C12.2631276,8.49375 19.7221276,8.49375 24.3841276,10.51875 C26.8611276,11.59475 28.0681276,13.03875 27.9971276,14.47575 C27.3111276,13.86875 26.4081276,13.27275 25.2001276,12.73375 C22.6951276,11.61575 19.4251276,10.99975 15.9931276,10.99975 Z M24.3879276,13.55995 C29.1059276,15.66895 29.2579276,19.14995 24.6079276,21.33695 C19.8939276,23.55495 12.1459276,23.55495 7.42592763,21.33695 C2.77192763,19.14995 2.91392763,15.66895 7.62892763,13.55995 C12.2789276,11.47895 19.7319276,11.47895 24.3879276,13.55995 Z M22.4589276,20.24395 C25.9459276,19.24995 25.8329276,17.66795 22.2939276,16.70895 C18.8019276,15.76395 13.2129276,15.76395 9.72492763,16.70895 C6.18792763,17.66795 6.08092763,19.24995 9.57192763,20.24395 C13.1129276,21.25195 18.9229276,21.25195 22.4589276,20.24395 Z"></path>
  </symbol>
  <symbol id="recessedfloor" xmlns="http://www.w3.org/2000/svg" viewBox="0 0 32 32">
    <path d="M15.9931276,10.99975 C12.5611276,10.99975 9.29312763,11.61575 6.78912763,12.73375 C5.58712763,13.27075 4.68612763,13.86575 4.00312763,14.47075 C3.93012763,13.03475 5.13512763,11.59375 7.60612763,10.51875 C12.2631276,8.49375 19.7221276,8.49375 24.3841276,10.51875 C26.8611276,11.59475 28.0681276,13.03875 27.9971276,14.47575 C27.3111276,13.86875 26.4081276,13.27275 25.2001276,12.73375 C22.6951276,11.61575 19.4251276,10.99975 15.9931276,10.99975 Z M24.3879276,13.55995 C29.1059276,15.66895 29.2579276,19.14995 24.6079276,21.33695 C19.8939276,23.55495 12.1459276,23.55495 7.42592763,21.33695 C2.77192763,19.14995 2.91392763,15.66895 7.62892763,13.55995 C12.2789276,11.47895 19.7319276,11.47895 24.3879276,13.55995 Z M22.4589276,20.24395 C25.9459276,19.24995 25.8329276,17.66795 22.2939276,16.70895 C18.8019276,15.76395 13.2129276,15.76395 9.72492763,16.70895 C6.18792763,17.66795 6.08092763,19.24995 9.57192763,20.24395 C13.1129276,21.25195 18.9229276,21.25195 22.4589276,20.24395 Z" transform="translate(16.006156, 16.000225) rotate(-180.000000) translate(-16.006156, -16.000225) "></path>
  </symbol>
  <symbol id="singlespot" xmlns="http://www.w3.org/2000/svg" viewBox="0 0 32 32">
    <path d="M25.512,22.44475 C24.737,24.67075 23.145,26.13075 21.957,25.70575 C20.77,25.28175 20.436,23.13275 21.212,20.90875 C21.988,18.68275 23.579,17.22275 24.767,17.64675 C25.954,18.07175 26.288,20.21875 25.512,22.44475 M26.26,16.08275 L15,12.26075 L15,10.37575 C17.255,10.31175 19.45,10.03375 21.162,9.54075 C22.782,9.07175 23.7,8.49075 23.938,7.89075 C23.982,7.79075 24,7.68475 24,7.57875 L24,6.81475 C24,6.70875 23.982,6.60775 23.938,6.50275 C23.694,5.87775 22.7,5.27675 20.982,4.80175 C17.1,3.73275 10.888,3.73275 7.013,4.80175 C5.294,5.27675 4.307,5.87775 4.063,6.50275 C4.019,6.60775 4,6.70875 4,6.81475 L4,7.57875 C4,7.68475 4.019,7.79075 4.063,7.89075 C4.3,8.49075 5.219,9.07175 6.844,9.54075 C8.556,10.03375 10.747,10.31075 13,10.37475 L13,12.28075 C11.812,12.88575 10.492,14.42275 9.728,16.33575 C8.613,19.12575 8.8,21.81775 10.148,22.34875 L22.062,27.89275 C23.836,28.51475 26.215,26.37575 27.375,23.11375 C28.534,19.85175 28.035,16.70475 26.26,16.08275"></path>
  </symbol>
  <symbol id="doublespot" xmlns="http://www.w3.org/2000/svg" viewBox="0 0 32 32">
    <path d="M25.512,22.44475 C24.737,24.67075 23.145,26.13075 21.957,25.70575 C20.77,25.28175 20.436,23.13275 21.212,20.90875 C21.988,18.68275 23.579,17.22275 24.767,17.64675 C25.954,18.07175 26.288,20.21875 25.512,22.44475 M26.26,16.08275 L15,12.26075 L15,10.37575 C17.255,10.31175 19.45,10.03375 21.162,9.54075 C22.782,9.07175 23.7,8.49075 23.938,7.89075 C23.982,7.79075 24,7.68475 24,7.57875 L24,6.81475 C24,6.70875 23.982,6.60775 23.938,6.50275 C23.694,5.87775 22.7,5.27675 20.982,4.80175 C17.1,3.73275 10.888,3.73275 7.013,4.80175 C5.294,5.27675 4.307,5.87775 4.063,6.50275 C4.019,6.60775 4,6.70875 4,6.81475 L4,7.57875 C4,7.68475 4.019,7.79075 4.063,7.89075 C4.3,8.49075 5.219,9.07175 6.844,9.54075 C8.556,10.03375 10.747,10.31075 13,10.37475 L13,12.28075 C11.812,12.88575 10.492,14.42275 9.728,16.33575 C8.613,19.12575 8.8,21.81775 10.148,22.34875 L22.062,27.89275 C23.836,28.51475 26.215,26.37575 27.375,23.11375 C28.534,19.85175 28.035,16.70475 26.26,16.08275"></path>
  </symbol>
  <symbol id="tableshade" xmlns="http://www.w3.org/2000/svg" viewBox="0 0 32 32">
    <path d="M18.873,7.6884 C17.302,8.0914 14.719,8.0914 13.145,7.6884 C11.594,7.2914 11.642,6.6584 13.214,6.2744 C14.764,5.8964 17.248,5.8964 18.8,6.2744 C20.373,6.6584 20.423,7.2914 18.873,7.6884 M24.951,14.9344 L22.252,5.6914 L22.219,5.5954 C21.968,5.0144 20.743,4.4634 18.552,4.1674 C16.889,3.9444 15.197,3.9444 13.533,4.1684 C11.346,4.4634 10.123,5.0144 9.875,5.5954 L9.827,5.7464 L7.052,14.9304 C7.012,15.0604 6.987,15.1994 7.007,15.3344 C7.233,16.8554 9.981,18.0814 15.007,18.2234 L15.007,23.0274 C12.561,23.1564 10.611,23.7454 10.123,24.5004 C10.043,24.6204 10.003,24.7474 10.003,24.8754 L10.003,26.1254 C10.003,27.1604 12.691,28.0004 16.008,28.0004 C19.324,28.0004 22.014,27.1604 22.014,26.1254 L22.014,24.8754 C22.014,23.9464 19.848,23.1774 17.009,23.0284 L17.009,18.2234 C22.03,18.0794 24.772,16.8514 24.993,15.3294 C25.013,15.1974 24.988,15.0624 24.951,14.9344"></path>
  </symbol>
  <symbol id="tablewash" xmlns="http://www.w3.org/2000/svg" viewBox="0 0 32 32">
    <path d="M21.431,16.164 C19.826,14.859 18.362,13.363 17.084,11.721 C13.135,6.644 14.541,4.949 19.61,9.021 C21.261,10.349 22.761,11.882 24.06,13.57 C28.046,18.754 26.395,20.198 21.431,16.164 M28,17.267 C28,17.19 28,17.105 27.993,17.029 C27.993,16.476 27.753,15.703 27.236,14.736 C25.54,11.548 21.588,7.507 18.468,5.774 C17.59,5.284 16.878,5.038 16.353,5.008 C16.293,5 16.233,5 16.173,5.008 C16.113,5 16.06,5 16,5 C11.5,5 4,12.667 4,17.267 C4,21.531 6.125,25.28 9.351,27.478 C9.849,27.818 10.435,28 11.034,28 L19.286,28 C19.919,28 20.533,27.796 21.047,27.421 C24.628,24.813 28,20.351 28,17.267"></path>
  </symbol>
  <symbol id="walllantern" xmlns="http://www.w3.org/2000/svg" viewBox="0 0 32 32">
    <path d="M21.77525,24.55 C20.45825,24.122 18.54225,24.122 17.22425,24.549 L16.13325,16.79 C18.28025,17.063 20.71925,17.063 22.86625,16.791 L21.77525,24.55 Z M25.58225,12.756 C24.01825,12.284 21.98425,12.043 19.92125,12.012 C19.43925,8.619 16.52325,6 13.00025,6 C11.45825,6 10.03525,6.508 8.87725,7.356 C8.79825,6.702 8.68525,6.089 8.53325,5.561 C8.27525,4.67 7.95625,4.165 7.62625,4.034 C7.57125,4.011 7.51225,4 7.45425,4 L5.54725,4 C5.48925,4 5.43425,4.011 5.37625,4.034 C5.03225,4.168 4.70225,4.715 4.44025,5.66 C3.85325,7.795 3.85325,11.212 4.44025,13.343 C4.70225,14.288 5.03225,14.832 5.37625,14.966 C5.43425,14.989 5.48925,15 5.54725,15 L7.45425,15 C7.51225,15 7.57125,14.989 7.62625,14.966 C7.95625,14.835 8.27525,14.33 8.53325,13.436 C8.82025,12.44 8.96825,11.148 8.99125,9.834 C9.93125,8.646 11.37025,7.866 13.00025,7.866 C15.50225,7.866 17.58525,9.669 18.03625,12.042 C16.33825,12.129 14.71225,12.363 13.41125,12.756 C10.11825,13.75 10.22425,15.332 13.56825,16.291 C13.72125,16.335 13.89825,16.366 14.05925,16.406 L15.50125,26.652 C15.62225,27.101 16.33525,27.647 17.97925,27.889 C18.48525,27.963 18.99425,28 19.50225,28 C20.01025,28 20.51825,27.963 21.02425,27.889 C22.66625,27.647 23.34325,27.098 23.49925,26.654 L24.94025,16.408 C25.10325,16.367 25.28325,16.335 25.43825,16.291 C28.77825,15.332 28.87925,13.75 25.58225,12.756 Z"></path>
  </symbol>
  <symbol id="wallshade" xmlns="http://www.w3.org/2000/svg" viewBox="0 0 32 32">
    <path d="M21.8652,7.6943 C20.2932,8.1013 17.7112,8.1013 16.1372,7.6943 C14.5862,7.2933 14.6342,6.6543 16.2052,6.2673 C17.7562,5.8853 20.2392,5.8853 21.7922,6.2673 C23.3652,6.6543 23.4152,7.2933 21.8652,7.6943 M27.9512,14.7523 L25.2522,5.6633 L25.2192,5.5693 C24.9682,4.9983 23.7432,4.4563 21.5522,4.1653 C19.8882,3.9453 18.1972,3.9443 16.5332,4.1663 C14.3452,4.4563 13.1232,4.9983 12.8752,5.5693 L12.8262,5.7163 L10.0522,14.7483 C10.0112,14.8763 9.9872,15.0123 10.0072,15.1453 C10.2302,16.6193 12.9032,17.8083 17.7862,17.9773 C17.1282,20.2953 14.9972,22.0003 12.4702,22.0003 C11.1492,22.0003 9.9352,21.5323 8.9822,20.7563 C8.9432,19.3243 8.7992,17.9333 8.5332,16.8443 C8.2752,15.7923 7.9562,15.1953 7.6262,15.0413 C7.5712,15.0123 7.5122,15.0003 7.4542,15.0003 L5.5482,15.0003 C5.4892,15.0003 5.4342,15.0123 5.3762,15.0413 C5.0322,15.1993 4.7022,15.8443 4.4412,16.9623 C3.8532,19.4853 3.8532,23.5233 4.4412,26.0423 C4.7022,27.1593 5.0322,27.8003 5.3762,27.9593 C5.4342,27.9883 5.4892,28.0003 5.5482,28.0003 L7.4542,28.0003 C7.5122,28.0003 7.5712,27.9883 7.6262,27.9593 C7.9562,27.8043 8.2752,27.2083 8.5332,26.1513 C8.7442,25.2883 8.8772,24.2303 8.9452,23.1193 C9.9982,23.6793 11.1972,24.0003 12.4702,24.0003 C16.1022,24.0003 19.1422,21.4153 19.8462,17.9883 C24.9692,17.8673 27.7702,16.6523 27.9932,15.1403 C28.0122,15.0103 27.9882,14.8783 27.9512,14.7523"></path>
  </symbol>
  <symbol id="wallspot" xmlns="http://www.w3.org/2000/svg" viewBox="0 0 32 32">
    <path d="M23.3912327,21.5164172 C21.4842344,22.907399 19.3302363,23.1963953 18.581237,22.1624087 C17.8332377,21.1274222 18.7732368,19.1624479 20.6802351,17.771466 C22.5872334,16.3804841 24.7412315,16.0914879 25.4902308,17.1244744 C26.2392302,18.1604609 25.299231,20.1254353 23.3912327,21.5164172 M27.6152289,16.6014813 L18.8702367,6.59461177 C17.9722375,5.43562689 15.3402399,6.02261923 12.990242,7.90559468 C10.6382441,9.78757013 9.39524519,12.5895336 10.2912444,13.7485185 L11.1672436,14.9995022 L8.97424556,14.9995022 C8.92224561,13.7895179 8.77724574,12.6285331 8.53324596,11.7025452 C8.27524619,10.7315578 7.95524647,10.179565 7.62524677,10.0375669 C7.57124681,10.0115672 7.51224687,9.99956737 7.45324692,9.99956737 L5.54724862,9.99956737 C5.48924867,9.99956737 5.43424872,10.0115672 5.37524877,10.0375669 C5.03224908,10.183565 4.70224937,10.7805572 4.44024961,11.8115437 C3.85325013,14.1395134 3.85325013,17.8674648 4.44024961,20.1924344 C4.70224937,21.223421 5.03224908,21.8164132 5.37524877,21.9624113 C5.43424872,21.988411 5.48924867,21.9994109 5.54724862,21.9994109 L7.45324692,21.9994109 C7.51224687,21.9994109 7.57124681,21.988411 7.62524677,21.9624113 C7.95524647,21.8204132 8.27524619,21.2684204 8.53324596,20.2934331 C8.77724574,19.3684452 8.92124561,18.2084603 8.97424556,16.9994761 L12.5682424,16.9994761 L17.5142379,24.062384 C18.621237,25.6123637 21.7802341,25.1973692 24.5702317,23.137396 C27.3592292,21.0774229 28.722228,18.1504611 27.6152289,16.6014813"></path>
  </symbol>
</defs>
</svg>
