<svg xmlns="http://www.w3.org/2000/svg">
<defs>
  <symbol id="living-room" xmlns="http://www.w3.org/2000/svg" viewBox="0 0 32 32">
    <path d="M28,13 C29.104,13 30,13.896 30,15 L30,17.064 L30,19.064 L30,21.064 C30,21.581 29.581,22 29.064,22 L28,22 L28,23 C28,24.104 27.104,25 26,25 C24.896,25 24,24.104 24,23 L24,22 L8,22 L8,23 C8,24.104 7.104,25 6,25 C4.896,25 4,24.104 4,23 L4,22 L2.936,22 C2.419,22 2,21.581 2,21.064 L2,19.064 L2,17.064 L2,15 C2,13.896 2.896,13 4,13 C5.104,13 6,13.896 6,15 L6,16.064 L6,17 L26,17 L26,16.064 L26,15 C26,13.896 26.896,13 28,13 Z M8,15 C8,12.791 6.209,11 4,11 L4,9 C4,7.896 4.896,7 6,7 L26,7 C27.104,7 28,7.896 28,9 L28,11 C25.791,11 24,12.791 24,15 L8,15 Z"></path>
  </symbol>
  <symbol id="kitchen" xmlns="http://www.w3.org/2000/svg" viewBox="0 0 32 32">
    <path d="M23.5,7 C24.328,7 25,7.672 25,8.5 C25,9.328 24.328,10 23.5,10 L8.5,10 C7.672,10 7,9.328 7,8.5 C7,7.672 7.672,7 8.5,7 L14.277,7 C14.105,6.705 14,6.366 14,6 C14,4.896 14.896,4 16,4 C17.104,4 18,4.896 18,6 C18,6.366 17.895,6.705 17.723,7 L23.5,7 Z M26,12 C27.104,12 28,12.896 28,14 C28,15.104 27.104,16 26,16 L25,16 L25,25.879 C25,27.051 24.05,28 22.879,28 L9.121,28 C7.95,28 7,27.051 7,25.879 L7,16 L6,16 C4.896,16 4,15.104 4,14 C4,12.896 4.896,12 6,12 L9.121,12 L22.879,12 L26,12 Z"></path>
  </symbol>
  <symbol id="dining" xmlns="http://www.w3.org/2000/svg" viewBox="0 0 32 32">
    <path d="M24,3 C25.1,3 26,3.9 26,5 L26,27 C26,28.1 25.1,29 24,29 C22.9,29 22,28.1 22,27 L22,16.251 C20.399,15.101 19,12.737 19,10.001 C19,6.237 21.646,3.176 23.824,3.018 C23.883,3.013 23.939,3 24,3 Z M14,17.791 L14,27 C14,28.104 13.104,29 12,29 C10.896,29 10,28.104 10,27 L10,17.791 C10,17.283 9.807,16.794 9.459,16.423 L9.164,16.108 C7.773,14.625 7,12.669 7,10.637 L7,9 L7,4 C7,3.45 7.45,3 8,3 C8.55,3 9,3.45 9,4 L9,9 C9,9.55 9.45,10 10,10 C10.55,10 11,9.55 11,9 L11,4 C11,3.45 11.45,3 12,3 C12.55,3 13,3.45 13,4 L13,9 C13,9.55 13.45,10 14,10 C14.55,10 15,9.55 15,9 L15,4 C15,3.45 15.45,3 16,3 C16.55,3 17,3.45 17,4 L17,9 L17,10.637 C17,12.669 16.227,14.625 14.836,16.107 L14.541,16.423 C14.193,16.794 14,17.282 14,17.791 Z"></path>
  </symbol>
  <symbol id="bedroom" xmlns="http://www.w3.org/2000/svg" viewBox="0 0 32 32">
    <path d="M26,16 L6,16 C3.791,16 2,17.791 2,20 L2,22 C2,22.553 2.447,23 3,23 L4,23 L4,24 C4,25.104 4.896,26 6,26 C7.104,26 8,25.104 8,24 L8,23 L24,23 L24,24 C24,25.104 24.896,26 26,26 C27.104,26 28,25.104 28,24 L28,23 L29,23 C29.553,23 30,22.553 30,22 L30,20 C30,17.791 28.209,16 26,16 M9,10 L14,10 C14.553,10 15,10.447 15,11 C15,11.553 14.553,12 14,12 L9,12 C8.447,12 8,11.553 8,11 C8,10.447 8.447,10 9,10 M18,10 L23,10 C23.553,10 24,10.447 24,11 C24,11.553 23.553,12 23,12 L18,12 C17.447,12 17,11.553 17,11 C17,10.447 17.447,10 18,10 M7.009,14 L24.991,14 C25.549,14 26,13.549 26,12.991 L26,8 C26,6.896 25.104,6 24,6 L8,6 C6.896,6 6,6.896 6,8 L6,12.991 C6,13.549 6.451,14 7.009,14"></path>
  </symbol>
  <symbol id="kids-bedroom" xmlns="http://www.w3.org/2000/svg" viewBox="0 0 32 32">
    <path d="M21,25.5 C19.896,25.5 19,24.381 19,23 C19,21.619 19.896,20.5 21,20.5 C22.104,20.5 23,21.619 23,23 C23,24.381 22.104,25.5 21,25.5 M16,15 C14.343,15 13,13.881 13,12.5 C13,11.119 14.343,10 16,10 C17.657,10 19,11.119 19,12.5 C19,13.881 17.657,15 16,15 M11,25.5 C9.896,25.5 9,24.381 9,23 C9,21.619 9.896,20.5 11,20.5 C12.104,20.5 13,21.619 13,23 C13,24.381 12.104,25.5 11,25.5 Z M16,11 C16.553,11 17,11.447 17,12 C17,12.553 16.553,13 16,13 C15.447,13 15,12.553 15,12 C15,11.447 15.447,11 16,11 Z M25,16 C24.569,16 24.162,16.094 23.792,16.258 C23.15,15.454 22.278,14.761 21.239,14.222 C22,13.162 22.454,11.865 22.454,10.461 C22.454,10.436 22.45,10.411 22.45,10.386 C23.907,10.073 25,8.78 25,7.23 C25,5.446 23.554,4 21.77,4 C20.852,4 20.027,4.387 19.439,5.002 C18.44,4.371 17.262,4 15.993,4 C14.729,4 13.553,4.369 12.557,4.997 C11.969,4.385 11.146,4 10.23,4 C8.446,4 7,5.446 7,7.23 C7,8.775 8.087,10.063 9.536,10.382 C9.536,10.408 9.532,10.435 9.532,10.461 C9.532,11.868 9.987,13.166 10.751,14.228 C9.717,14.766 8.848,15.457 8.208,16.258 C7.838,16.094 7.431,16 7,16 C5.343,16 4,17.343 4,19 C4,20.657 5.343,22 7,22 C7.028,22 7.054,21.992 7.081,21.992 C7.028,22.317 7,22.654 7,23 C7,25.762 8.791,28 11,28 C12.351,28 13.539,27.158 14.264,25.877 C14.826,25.956 15.405,26 16,26 C16.595,26 17.174,25.956 17.736,25.877 C18.461,27.158 19.649,28 21,28 C23.209,28 25,25.762 25,23 C25,22.654 24.972,22.317 24.919,21.992 C24.946,21.992 24.972,22 25,22 C26.657,22 28,20.657 28,19 C28,17.343 26.657,16 25,16"></path>
  </symbol>
  <symbol id="bathroom" xmlns="http://www.w3.org/2000/svg" viewBox="0 0 32 32">
    <path d="M26.686,17 L26,17 L26,5.141 C26,2.306 23.695,0 20.86,0 C18.419,0 16.379,1.714 15.858,4 L14.007,4 C12.899,4 12,4.898 12,6.007 C12,6.555 12.446,7 12.994,7 L20.007,7 C20.555,7 21,6.555 21,6.007 C21,4.898 20.102,4 18.994,4 L17.942,4 C18.4,2.832 19.532,2 20.86,2 C22.591,2 24,3.409 24,5.141 L24,17 L5.315,17 C4.589,17 4,17.589 4,18.314 C4,19.04 4.589,19.629 5.315,19.629 L6,19.629 L6,21.857 C6,24.673 7.633,27.101 10,28.264 L10,30 C10,31.104 10.896,32 12,32 C13.105,32 14,31.104 14,30 L14,29 L18.858,29 C18.906,29 18.953,28.994 19,28.993 L19,30 C19,31.104 19.896,32 21,32 C22.105,32 23,31.104 23,30 L23,27.669 C24.814,26.373 26,24.256 26,21.857 L26,19.629 L26.686,19.629 C27.412,19.629 28,19.04 28,18.314 C28,17.589 27.412,17 26.686,17"></path>
  </symbol>
  <symbol id="nursery" xmlns="http://www.w3.org/2000/svg" viewBox="0 0 32 32">
    <path d="M16.7732885,14.9968619 C15.7936498,14.9968619 14.9959441,14.1983076 14.9959441,13.2168554 L14.9959441,12.9949793 L18.5496333,12.9949793 L18.5496333,13.2168554 C18.5496333,14.1983076 17.7529271,14.9968619 16.7732885,14.9968619 Z M26.2673933,21.5026266 C26.6402557,21.0958537 27.274022,21.0718671 27.6798723,21.4486568 C28.0847229,21.8234476 28.1087141,22.4580933 27.7328527,22.8628674 C24.7149659,26.1280449 20.4395429,28 16.0041789,28 C11.5688149,28 7.29339196,26.1280449 4.27550513,22.8628674 C3.89964377,22.4580933 3.92363492,21.8234476 4.32848559,21.4486568 C4.73333626,21.0718671 5.36610286,21.0958537 5.74096458,21.5026266 C5.83193103,21.6015714 5.93489305,21.6875234 6.02885839,21.7824704 L8.92479021,13.8189154 C5.4920564,14.8323498 2.52914929,10.9615104 4.7923145,8.64480346 C6.09083553,7.31454597 4.76632409,5.98728681 4.11556413,5.35364049 C3.92363492,5.16574537 4.00160616,4.8369289 4.25751177,4.75197632 C11.6367899,2.31233805 14.2268345,6.36607538 14.5946988,8.97961658 C14.7426443,10.0370264 14.2638209,11.4292493 14.0049164,12.0449056 L13.1552298,14.2027012 C13.5950675,15.8028081 15.0465322,16.9881465 16.7818921,16.9881465 C18.7931502,16.9881465 20.4265477,15.4010323 20.5365071,13.4151408 C20.9473556,13.6110315 21.3182188,13.8768831 21.6470975,14.1867101 C22.8726454,14.2386811 24.1121882,13.8079216 25.050842,12.8674465 C25.7056005,12.2118125 26.1174486,11.408261 26.2893852,10.5657313 C26.4403295,9.82214631 27.5209309,9.77617197 27.7668402,10.492772 C28.4375928,12.4576752 27.4889427,13.9828239 27.0790939,14.5185249 C26.9841289,14.6414563 26.8821665,14.7533938 26.7682085,14.8583353 C25.7135975,15.8307925 24.3171126,16.2015855 22.9886027,16.0056948 C23.0305872,16.0726575 23.0755706,16.1376212 23.1105577,16.2105805 L25.7905691,21.9653683 L25.7905691,21.9663678 C25.9485109,21.8114543 26.1154493,21.6655357 26.2673933,21.5026266 Z M16.0041789,25.9971179 C18.3393176,25.9971179 20.6184769,25.3934549 22.6437299,24.3000652 C22.4478021,24.1251628 22.2838626,23.9092833 22.1669058,23.6574239 L19.9927077,18.9900291 L11.2989145,18.9900291 L9.55355828,23.793348 C9.48958188,23.967251 9.39861543,24.121165 9.29565341,24.2650847 C11.3369005,25.3834605 13.6430498,25.9971179 16.0041789,25.9971179 Z M8.00712869,9.98105761 C8.55992479,9.98105761 9.00675997,9.53230809 9.00675997,8.97961658 C9.00675997,8.42692508 8.55992479,7.979175 8.00712869,7.979175 C7.4543326,7.979175 7.00749742,8.42692508 7.00749742,8.97961658 C7.00749742,9.53230809 7.4543326,9.98105761 8.00712869,9.98105761 Z"></path>
  </symbol>
  <symbol id="office" xmlns="http://www.w3.org/2000/svg" viewBox="0 0 32 32">
    <path d="M26.5,14 L25.5,14 C24.675,14 24,14.675 24,15.5 L24,18.605 C24,19.045 23.642,19.403 23.202,19.403 L23.195,19.403 C22.284,17.963 20.688,17 18.857,17 L17,17 L17,14 L20.091,14 C21.697,14 23,12.697 23,11.09 L21.727,1.246 C21.623,0.531 21.01,0 20.287,0 L11.713,0 C10.99,0 10.377,0.531 10.273,1.246 L9,11.09 C9,12.697 10.303,14 11.909,14 L15,14 L15,17 L13.143,17 C11.492,17 10.04,17.791 9.099,19 L8.798,19 C8.358,19 8,18.642 8,18.202 L8,15.299 C8,14.362 7.234,13.597 6.299,13.597 L5.701,13.597 C4.766,13.597 4,14.362 4,15.299 C4,16.234 4.766,17 5.701,17 L6,17 L6,18.202 C6,19.525 6.926,20.631 8.162,20.921 C8.065,21.314 8,21.72 8,22.143 C8,22.616 8.384,23 8.857,23 L14.873,23 L10.521,28.077 C10.354,28.032 10.182,28 10,28 C8.896,28 8,28.896 8,30 C8,31.104 8.896,32 10,32 C11.104,32 12,31.104 12,30 C12,29.71 11.936,29.436 11.824,29.188 L15,25.482 L15,28.277 C14.404,28.624 14,29.262 14,30 C14,31.104 14.896,32 16,32 C17.104,32 18,31.104 18,30 C18,29.262 17.596,28.624 17,28.277 L17,25.482 L20.176,29.188 C20.064,29.436 20,29.71 20,30 C20,31.104 20.896,32 22,32 C23.104,32 24,31.104 24,30 C24,28.896 23.104,28 22,28 C21.818,28 21.646,28.032 21.479,28.077 L17.127,23 L23.143,23 C23.616,23 24,22.616 24,22.143 C24,21.854 23.961,21.575 23.915,21.3 C25.111,20.982 26,19.9 26,18.605 L26,17 L26.5,17 C27.325,17 28,16.325 28,15.5 C28,14.675 27.325,14 26.5,14"></path>
  </symbol>
  <symbol id="toilet" xmlns="http://www.w3.org/2000/svg" viewBox="0 0 32 32">
    <path d="M8.9999875,19 C8.44699441,19 8,18.553 8,18 C8,17.447 8.44699441,17 8.9999875,17 L12.80294,17 C10.5459682,15.506 8.9999875,12.488 8.9999875,9 C8.9999875,4.029 12.1339483,0 15.9999,0 C19.8658517,0 22.9998125,4.029 22.9998125,9 C22.9998125,12.488 21.4538318,15.506 19.19686,17 L22.9998125,17 C23.5528056,17 23.9998,17.447 23.9998,18 C23.9998,18.553 23.5528056,19 22.9998125,19 L8.9999875,19 Z M23.20001,21 C23.6410045,21 24,21.348 24,21.777 L24,21.997 C24,25.283 21.9000262,27.812 18.9350633,28.949 C18.5120686,29.112 18.2320721,29.509 18.2320721,29.953 L18.2320721,30.915 C18.2320721,31.515 17.7320783,32 17.116086,32 L14.8841139,32 C14.2671217,32 13.7671279,31.515 13.7671279,30.915 L13.7671279,29.937 C13.7671279,29.493 13.4881314,29.1 13.0651367,28.933 C10.0701741,27.747 7.99720003,25.082 8.0002,21.77 C8.0002,21.344 8.36219547,21 8.80019,21 L23.20001,21 Z"></path>
  </symbol>
  <symbol id="staircase" xmlns="http://www.w3.org/2000/svg" viewBox="0 0 32 32">
    <path d="M27,28 L11.414,28 L28,11.414 L28,27 C28,27.553 27.553,28 27,28 Z M23,4 L28,4 L28,8.586 L8.586,28 L4,28 L4,23 C4,22.447 4.447,22 5,22 L10,22 L10,17 C10,16.447 10.447,16 11,16 L16,16 L16,11 C16,10.447 16.447,10 17,10 L22,10 L22,5 C22,4.447 22.447,4 23,4 Z"></path>
  </symbol>
  <symbol id="hallway" xmlns="http://www.w3.org/2000/svg" viewBox="0 0 32 32">
    <path d="M27.976,21.823 L25.099,9.047 C24.647,7.037 22.719,5.761 20.714,6.062 L19.933,4.89 C19.562,4.334 18.938,4 18.269,4 L17,4 C16.448,4 16,4.447 16,5 L16,7 L14,7 L14,1 C14,0.447 13.553,0 13,0 C12.448,0 12,0.447 12,1 L12,12 L8,12 L8,10 C8,9.447 7.553,9 7,9 C6.448,9 6,9.447 6,10 L6,13 C6,13.552 6.448,14 7,14 L12,14 L12,29 L8,29 C6.896,29 6,29.895 6,31 C6,31.552 6.448,32 7,32 L19,32 C19.553,32 20,31.552 20,31 C20,29.895 19.105,29 18,29 L14,29 L14,9 L16,9 L16,25 C16,25.552 16.448,26 17,26 L18.339,26 C20.409,26 21.96,24.106 21.555,22.078 L20.339,16 L21.445,11.026 L24.074,22.702 C24.195,23.241 24.73,23.579 25.269,23.458 L27.22,23.018 C27.758,22.897 28.097,22.362 27.976,21.823"></path>
  </symbol>
  <symbol id="laundry-room" xmlns="http://www.w3.org/2000/svg" viewBox="0 0 32 32">
    <path d="M25,6 C24.447,6 24,5.553 24,5 C24,4.447 24.447,4 25,4 C25.553,4 26,4.447 26,5 C26,5.553 25.553,6 25,6 M16,26 C11.582,26 8,22.418 8,18 C8,13.582 11.582,10 16,10 C20.418,10 24,13.582 24,18 C24,22.418 20.418,26 16,26 M6,5 C6,4.447 6.447,4 7,4 L11,4 C11.553,4 12,4.447 12,5 C12,5.553 11.553,6 11,6 L7,6 C6.447,6 6,5.553 6,5 M21,4 C21.553,4 22,4.447 22,5 C22,5.553 21.553,6 21,6 C20.447,6 20,5.553 20,5 C20,4.447 20.447,4 21,4 Z M22,16.0283 C21.017,16.1803 20.279,17.0033 20.279,18.0003 C20.279,18.9973 21.017,19.8193 22,19.9713 C21.158,22.3123 18.868,24.0003 16.175,24.0003 C12.77,24.0003 10,21.3083 10,18.0003 C10,14.6913 12.77,12.0003 16.175,12.0003 C18.868,12.0003 21.158,13.6873 22,16.0283 Z M27,2 L5,2 C4.447,2 4,2.447 4,3 L4,8 L4,29 C4,29.553 4.447,30 5,30 L27,30 C27.553,30 28,29.553 28,29 L28,8 L28,3 C28,2.447 27.553,2 27,2"></path>
  </symbol>
  <symbol id="storage" xmlns="http://www.w3.org/2000/svg" viewBox="0 0 32 32">
    <path d="M5,26 L5,11 L27,11 L27,26 C27,26.553 26.553,27 26,27 L6,27 C5.447,27 5,26.553 5,26 Z M12,15 C11.447,15 11,15.447 11,16 C11,16.553 11.447,17 12,17 L20,17 C20.553,17 21,16.553 21,16 C21,15.447 20.553,15 20,15 L12,15 Z M26,5 C26.553,5 27,5.447 27,6 L27,9 L5,9 L5,6 C5,5.447 5.447,5 6,5 L26,5 Z"></path>
  </symbol>
  <symbol id="closet" xmlns="http://www.w3.org/2000/svg" viewBox="0 0 32 32">
    <path d="M24,9 L20,9 C19.447,9 19,8.553 19,8 C19,7.447 19.447,7 20,7 L24,7 C24.553,7 25,7.447 25,8 C25,8.553 24.553,9 24,9 Z M24,15 L20,15 C19.447,15 19,14.553 19,14 C19,13.447 19.447,13 20,13 L24,13 C24.553,13 25,13.447 25,14 C25,14.553 24.553,15 24,15 Z M24,21 L20,21 C19.447,21 19,20.553 19,20 C19,19.447 19.447,19 20,19 L24,19 C24.553,19 25,19.447 25,20 C25,20.553 24.553,21 24,21 Z M17,23 C17,23.553 16.553,24 16,24 C15.447,24 15,23.553 15,23 L15,5 C15,4.447 15.447,4 16,4 C16.553,4 17,4.447 17,5 L17,23 Z M12,15 L10,15 C9.447,15 9,14.553 9,14 C9,13.447 9.447,13 10,13 L12,13 C12.553,13 13,13.447 13,14 C13,14.553 12.553,15 12,15 Z M26,1 L6,1 C5.447,1 5,1.447 5,2 L5,26 C5,26.553 5.447,27 6,27 L7,27 L7,28 C7,28.553 7.447,29 8,29 C8.553,29 9,28.553 9,28 L9,27 L23,27 L23,28 C23,28.553 23.447,29 24,29 C24.553,29 25,28.553 25,28 L25,27 L26,27 C26.553,27 27,26.553 27,26 L27,2 C27,1.447 26.553,1 26,1 Z"></path>
  </symbol>
  <symbol id="garage" xmlns="http://www.w3.org/2000/svg" viewBox="0 0 32 32">
    <path d="M27.7810036,5.73796252 C28.0739954,6.03096433 28.0729954,6.53896747 27.7780037,6.96097008 L23.2741305,13.4100099 C22.8731418,13.9850135 22.1121632,14.1510145 21.7121745,13.752012 L20.7732009,12.8120062 L19.6952313,13.8900129 L18.1302754,12.3260032 L19.208245,11.2479965 L18.2692714,10.3079907 C17.8692827,9.90798827 18.035278,9.14698358 18.6102618,8.7459811 L25.0590803,4.24195328 C25.4810684,3.94795147 25.990054,3.94695146 26.2830458,4.23995327 L27.7810036,5.73796252 Z M11.5441608,17.3474342 L14.6730727,20.4774535 L7.47327545,27.677498 C7.04328755,28.1075007 6.33930738,28.1075007 5.90831951,27.677498 L4.34436355,26.1124883 C3.91337569,25.6824857 3.91337569,24.9784813 4.34436355,24.5474787 L11.5441608,17.3474342 Z M27.6560071,24.6774795 C28.086995,25.1084821 28.086995,25.8134865 27.6560071,26.2424891 L26.2430469,27.6564979 C26.028053,27.8714992 25.744061,27.9794999 25.4610689,27.9794999 C25.1770769,27.9794999 24.8930849,27.8714992 24.677091,27.6564979 L11.181471,14.1594145 C9.57351631,14.7924184 7.68956936,14.6004173 6.25460976,13.585411 C4.42466129,12.292403 3.71168137,10.1653899 4.1046703,8.21737783 C4.18666799,7.81537535 4.6976536,7.67437448 4.98764544,7.96537628 L7.02658802,10.0043889 C7.43657648,10.4143914 8.10655761,10.4143914 8.5155461,10.0043889 L10.0055041,8.51537967 C10.4154926,8.10637715 10.4154926,7.43637301 10.0055041,7.02637048 L7.96956147,4.99035791 C7.67556975,4.69635609 7.82456555,4.18335292 8.23155409,4.10235242 C9.89750718,3.77035037 11.6924566,4.24535331 12.9834203,5.53736128 C14.5093773,7.06337071 14.8943665,9.28938445 14.1563873,11.1783961 L27.6560071,24.6774795 Z"></path>
  </symbol>
  <symbol id="other" xmlns="http://www.w3.org/2000/svg" viewBox="0 0 32 32">
    <path d="M25.142,2.74043495 C25.634,2.81143797 26,3.23745613 26,3.73947752 L26,28.2605225 C26,28.7625439 25.634,29.188562 25.142,29.2595651 L13.142,30.9896388 C12.539,31.0766425 12,30.6046224 12,29.9905962 L12,28.0005114 L7.052,28.0005114 C6.473,28.0005114 6,27.5274912 6,26.9484666 L6,5.05153343 C6,4.47250876 6.473,3.9994886 7.052,3.9994886 L12,3.9994886 L12,2.00940379 C12,1.39537763 12.539,0.923357513 13.142,1.01036122 L25.142,2.74043495 Z M15,17.0000426 C15.553,17.0000426 16,16.5530236 16,16 C16,15.4469764 15.553,14.9999574 15,14.9999574 C14.447,14.9999574 14,15.4469764 14,16 C14,16.5530236 14.447,17.0000426 15,17.0000426 Z M8,26.0004262 L12,26.0004262 L12,5.99957383 L8,5.99957383 L8,26.0004262 Z"></path>
  </symbol>
  <symbol id="gym" xmlns="http://www.w3.org/2000/svg" viewBox="0 0 32 32">
    <path d="M23,9 C23.55,9 24,9.45 24,10 L24,22 C24,22.55 23.55,23 23,23 L19,23 C18.45,23 18,22.55 18,22 L18,19 L14,19 L14,22 C14,22.55 13.55,23 13,23 L9,23 C8.45,23 8,22.55 8,22 L8,10 C8,9.45 8.45,9 9,9 L13,9 C13.55,9 14,9.45 14,10 L14,13 L18,13 L18,10 C18,9.45 18.45,9 19,9 L23,9 Z M4,12 C4,11.447 4.447,11 5,11 L6,11 L6,21 L5,21 C4.447,21 4,20.553 4,20 L4,18 C2.896,18 2,17.104 2,16 C2,14.896 2.896,14 4,14 L4,12 Z M28,14 C29.104,14 30,14.896 30,16 C30,17.104 29.104,18 28,18 L28,20 C28,20.553 27.553,21 27,21 L26,21 L26,11 L27,11 C27.553,11 28,11.447 28,12 L28,14 Z"></path>
  </symbol>
  <symbol id="lounge" xmlns="http://www.w3.org/2000/svg" viewBox="0 0 32 32">
    <path d="M24,17 C27.313,17 30,17.687 30,21 C30,21.553 29.553,22 29,22 L28,22 L28,23 C28,24.104 27.104,25 26,25 C24.896,25 24,24.104 24,23 L24,22 L8,22 L8,23 C8,24.104 7.104,25 6,25 C4.896,25 4,24.104 4,23 L4,22 L3.232,22 L3,22 C2.447,22 2,21.553 2,21 C2,20.947 2.014,20.897 2.016,20.845 C2.014,20.817 2,20.795 2,20.768 L2,13.907 C2,12.858 2.858,12 3.907,12 L4.093,12 C5.142,12 6,12.858 6,13.907 L6,17 L24,17 Z M4.093,10 L3.907,10 C3.309,10 2.508,10.194 2,10.436 C2.795,7.357 5.801,5 10.48,5 C14.961,5 17.77,7.117 19,10 L24.349,10 C26.365,10 28,11.635 28,13.651 L28,14.087 C28,14.592 27.592,15 27.087,15 L8,15 L8,13.907 C8,11.753 6.247,10 4.093,10 Z"></path>
  </symbol>
  <symbol id="tv" xmlns="http://www.w3.org/2000/svg" viewBox="0 0 32 32">
    <path d="M29,5 C29.553,5 30,5.447 30,6 L30,20 C30,20.552 29.553,21 29,21 L3,21 C2.447,21 2,20.552 2,20 L2,6 C2,5.447 2.447,5 3,5 L29,5 Z M16,23.0215 C18.484,23.0215 20.668,24.3045 21.919,26.2425 C22.135,26.5775 21.894,27.0215 21.494,27.0215 L10.506,27.0215 C10.106,27.0215 9.865,26.5775 10.081,26.2425 C11.332,24.3045 13.516,23.0215 16,23.0215 Z"></path>
  </symbol>
  <symbol id="computer" xmlns="http://www.w3.org/2000/svg" viewBox="0 0 32 32">
    <path d="M29,5 C29.55,5 30,5.45 30,6 L30,17 L2,17 L2,6 C2,5.45 2.45,5 3,5 L29,5 Z M2,20 L2,19 L30,19 L30,20 C30,20.55 29.55,21 29,21 L17,21 L17,25 L19,25 C19.553,25 20,25.447 20,26 C20,26.553 19.553,27 19,27 L13,27 C12.447,27 12,26.553 12,26 C12,25.447 12.447,25 13,25 L15,25 L15,21 L3,21 C2.45,21 2,20.55 2,20 Z"></path>
  </symbol>
  <symbol id="recreation" xmlns="http://www.w3.org/2000/svg" viewBox="0 0 32 32">
    <path d="M25,22 C26.657,22 28,23.343 28,25 C28,26.657 26.657,28 25,28 C23.343,28 22,26.657 22,25 C22,23.343 23.343,22 25,22 Z M26.3475,20.2077341 C25.9155,20.0857341 25.4695,19.9997341 24.9995,19.9997341 C22.2435,19.9997341 19.9995,22.2427341 19.9995,24.9997341 C17.6345,25.5207341 14.8735,25.0717341 12.6735,23.9537341 C12.0975,23.6617341 11.4005,23.7717341 10.9435,24.2287341 L7.4525,27.7067341 C7.0625,28.0977341 6.4275,28.0977341 6.0365,27.7067341 L4.2925,25.9687341 C3.9025,25.5787341 3.9025,24.9457341 4.2925,24.5567341 L7.7845,21.0757341 C8.2325,20.6287341 8.3625,19.9417341 8.0725,19.3807341 C5.7815,14.9317341 6.8745,9.19673413 11.3635,5.98073413 C15.0925,3.30873413 19.9725,3.34473413 23.6695,6.06073413 C28.3495,9.49873413 29.2255,15.7007341 26.3475,20.2077341 Z"></path>
  </symbol>
  <symbol id="man-cave" xmlns="http://www.w3.org/2000/svg" viewBox="0 0 32 32">
    <path d="M27,13.934 C26.447,13.934 26,13.486 26,12.934 C26,12.381 26.447,11.934 27,11.934 C27.553,11.934 28,12.381 28,12.934 C28,13.486 27.553,13.934 27,13.934 M24,10.934 C23.447,10.934 23,10.486 23,9.934 C23,9.381 23.447,8.934 24,8.934 C24.553,8.934 25,9.381 25,9.934 C25,10.486 24.553,10.934 24,10.934 M24,17 C23.447,17 23,16.553 23,16 C23,15.448 23.447,15 24,15 C24.553,15 25,15.448 25,16 C25,16.553 24.553,17 24,17 M21,13.934 C20.447,13.934 20,13.486 20,12.934 C20,12.381 20.447,11.934 21,11.934 C21.553,11.934 22,12.381 22,12.934 C22,13.486 21.553,13.934 21,13.934 M9.963,13.934 L8.963,13.934 L8.963,14.934 C8.963,15.484 8.513,15.934 7.963,15.934 C7.413,15.934 6.963,15.484 6.963,14.934 L6.963,13.934 L5.963,13.934 C5.413,13.934 4.963,13.484 4.963,12.934 C4.963,12.384 5.413,11.934 5.963,11.934 L6.963,11.934 L6.963,10.934 C6.963,10.384 7.413,9.934 7.963,9.934 C8.513,9.934 8.963,10.384 8.963,10.934 L8.963,11.934 L9.963,11.934 C10.513,11.934 10.963,12.384 10.963,12.934 C10.963,13.484 10.513,13.934 9.963,13.934 M24.357,7 L24.174,7 L8.576,7 C5.191,7 2,9.698 2,12.934 L2,21.395 C2,23.49 4.064,25 5.942,25 C7.449,25 8.868,24.043 9.421,22.718 L11.322,17.996 L20.678,17.996 L23.219,22.718 C23.973,24.043 24.925,24.899 26.418,24.899 C28.495,24.899 30,23.49 30,21.395 L30,12.934 C30,9.698 27.543,7 24.357,7"></path>
  </symbol>
  <symbol id="music" xmlns="http://www.w3.org/2000/svg" viewBox="0 0 32 32">
    <path d="M16,6 C21.514,6 26,10.486 26,16 C26,17.422 25.7,18.774 25.163,20 L24,20 L24,19 C24,18.448 23.553,18 23,18 L20,18 C18.896,18 18,18.896 18,20 L18,26 C18,27.104 18.896,28 20,28 L23,28 C23.553,28 24,27.553 24,27 L24,26 L26,26 C26.553,26 27,25.553 27,25 L27,21 C27,20.944 26.977,20.896 26.968,20.843 C27.624,19.36 28,17.726 28,16 C28,9.373 22.628,4 16,4 C9.373,4 4,9.373 4,16 C4,17.726 4.376,19.36 5.031,20.843 C5.023,20.896 5,20.944 5,21 L5,25 C5,25.553 5.447,26 6,26 L8,26 L8,27 C8,27.553 8.447,28 9,28 L12,28 C13.104,28 14,27.104 14,26 L14,20 C14,18.896 13.104,18 12,18 L9,18 C8.447,18 8,18.447 8,19 L8,20 L6.837,20 C6.3,18.774 6,17.422 6,16 C6,10.486 10.486,6 16,6"></path>
  </symbol>
  <symbol id="reading" xmlns="http://www.w3.org/2000/svg" viewBox="0 0 32 32">
    <path d="M24,11.004 L20,11.004 C19.447,11.004 19,10.557 19,10.004 C19,9.451 19.447,9.004 20,9.004 L24,9.004 C24.553,9.004 25,9.451 25,10.004 C25,10.557 24.553,11.004 24,11.004 Z M24,16.004 L20,16.004 C19.447,16.004 19,15.557 19,15.004 C19,14.451 19.447,14.004 20,14.004 L24,14.004 C24.553,14.004 25,14.451 25,15.004 C25,15.557 24.553,16.004 24,16.004 Z M24,21.004 L20,21.004 C19.447,21.004 19,20.557 19,20.004 C19,19.451 19.447,19.004 20,19.004 L24,19.004 C24.553,19.004 25,19.451 25,20.004 C25,20.557 24.553,21.004 24,21.004 Z M17,21.004 C17,21.557 16.553,22.004 16,22.004 C15.447,22.004 15,21.557 15,21.004 L15,10.004 C15,9.451 15.447,9.004 16,9.004 C16.553,9.004 17,9.451 17,10.004 L17,21.004 Z M12,11.004 L8,11.004 C7.447,11.004 7,10.557 7,10.004 C7,9.451 7.447,9.004 8,9.004 L12,9.004 C12.553,9.004 13,9.451 13,10.004 C13,10.557 12.553,11.004 12,11.004 Z M12,16.004 L8,16.004 C7.447,16.004 7,15.557 7,15.004 C7,14.451 7.447,14.004 8,14.004 L12,14.004 C12.553,14.004 13,14.451 13,15.004 C13,15.557 12.553,16.004 12,16.004 Z M12,21.004 L8,21.004 C7.447,21.004 7,20.557 7,20.004 C7,19.451 7.447,19.004 8,19.004 L12,19.004 C12.553,19.004 13,19.451 13,20.004 C13,20.557 12.553,21.004 12,21.004 Z M26.996,6 L18,6 C16.979,6 16,7 16,7 C16,7 14.979,6 14,6 L5.002,6 C4.448,6 4,6.449 4,7.002 L4,23 C4,23.555 4.449,24.004 5.004,24.004 L12.012,24.004 C13.981,24.004 13.987,26.004 15,26.004 L17,26.004 C18,26.004 18.027,24.004 20.006,24.004 L26.995,24.004 C27.55,24.004 28,23.554 28,22.999 L28,7.004 C28,6.449 27.551,6 26.996,6 Z"></path>
  </symbol>
  <symbol id="studio" xmlns="http://www.w3.org/2000/svg" viewBox="0 0 32 32">
    <path d="M25,6 C25.553,6 26,6.447 26,7 L26,16 C26,16.553 25.553,17 25,17 L7,17 C6.447,17 6,16.553 6,16 L6,7 C6,6.447 6.447,6 7,6 L15,6 L15,4 C15,3.447 15.447,3 16,3 C16.553,3 17,3.447 17,4 L17,6 L25,6 Z M21.0950103,21 L24.8660103,27.498 C25.1430103,27.976 24.9800103,28.588 24.5020103,28.865 C24.3440103,28.957 24.1710103,29 24.0010103,29 C23.6570103,29 23.3210103,28.821 23.1350103,28.502 L18.7820103,21 L17.0000103,21 L17.0000103,27.95 C17.0000103,28.503 16.5530103,28.95 16.0000103,28.95 C15.4480103,28.95 15.0000103,28.503 15.0000103,27.95 L15.0000103,21 L13.2180103,21 L8.86601026,28.502 C8.68001026,28.821 8.34401026,29 7.99901026,29 C7.82901026,29 7.65701026,28.957 7.49801026,28.865 C7.02101026,28.588 6.85801026,27.976 7.13501026,27.498 L10.9060103,21 L9.00001026,21 C8.44801026,21 8.00001026,20.553 8.00001026,20 C8.00001026,19.447 8.44801026,19 9.00001026,19 L23.0000103,19 C23.5530103,19 24.0000103,19.447 24.0000103,20 C24.0000103,20.553 23.5530103,21 23.0000103,21 L21.0950103,21 Z"></path>
  </symbol>


  <symbol id="balcony" xmlns="http://www.w3.org/2000/svg" viewBox="0 0 32 32">
    <path d="M24,12.278 C23.405,12.625 23,13.262 23,14 C23,14.737 23.405,15.375 24,15.721 L24,20.024 C23.917,20.019 23.838,20 23.754,20 L20,20 L20,15.721 C20.595,15.375 21,14.737 21,14 C21,13.262 20.595,12.625 20,12.278 L20,8 L24,8 L24,12.278 Z M8,20.024 L8,15.721 C8.595,15.375 9,14.737 9,14 C9,13.262 8.595,12.625 8,12.278 L8,8 L12,8 L12,12.278 C11.405,12.625 11,13.262 11,14 C11,14.737 11.405,15.375 12,15.721 L12,20 L8.246,20 C8.162,20 8.083,20.019 8,20.024 Z M18,12.278 C17.405,12.625 17,13.262 17,14 C17,14.737 17.405,15.375 18,15.721 L18,20 L14,20 L14,15.721 C14.595,15.375 15,14.737 15,14 C15,13.262 14.595,12.625 14,12.278 L14,8 L18,8 L18,12.278 Z M29,6 L3,6 C2.45,6 2,6.45 2,7 C2,7.549 2.45,8 3,8 L6,8 L6,12.278 C5.405,12.625 5,13.262 5,14 C5,14.737 5.405,15.375 6,15.721 L6,20.655 C4.803,21.406 4,22.728 4,24.246 C4,25.215 4.785,26 5.754,26 L26.246,26 C27.215,26 28,25.215 28,24.246 C28,22.728 27.197,21.406 26,20.655 L26,15.721 C26.595,15.375 27,14.737 27,14 C27,13.262 26.595,12.625 26,12.278 L26,8 L29,8 C29.55,8 30,7.549 30,7 C30,6.45 29.55,6 29,6 Z"></path>
  </symbol>
  <symbol id="driveway" xmlns="http://www.w3.org/2000/svg" viewBox="0 0 32 32">
    <path d="M24,20 C22.896,20 22,19.104 22,18 C22,16.896 22.896,16 24,16 C25.104,16 26,16.896 26,18 C26,19.104 25.104,20 24,20 Z M21.77,13 L10.23,13 C9.42,13 8.831,12.248 9.044,11.485 L10.046,7.886 C10.191,7.363 10.678,7 11.232,7 L20.768,7 C21.322,7 21.809,7.363 21.954,7.886 L22.956,11.485 C23.169,12.248 22.58,13 21.77,13 Z M20,18.594 C20,19.367 19.359,20 18.577,20 L13.423,20 C12.641,20 12,19.367 12,18.594 L12,18.406 C12,17.633 12.641,17 13.423,17 L18.577,17 C19.359,17 20,17.633 20,18.406 L20,18.594 Z M8,20 C6.896,20 6,19.104 6,18 C6,16.896 6.896,16 8,16 C9.104,16 10,16.896 10,18 C10,19.104 9.104,20 8,20 Z M27.313,14.318 L26.108,13.743 C25.786,13.589 25.549,13.298 25.459,12.949 L23.661,5.91 C23.524,5.374 23.047,5 22.499,5 L9.501,5 C8.953,5 8.476,5.374 8.339,5.91 L6.541,12.949 C6.451,13.298 6.214,13.589 5.892,13.743 L4.688,14.318 C4.268,14.519 4,14.946 4,15.416 L4,21.786 C4,22.456 4.537,23 5.2,23 L7,23 L7,25.174 C7,26.179 7.821,27 8.826,27 L10.174,27 C11.179,27 12,26.179 12,25.174 L12,23 L20,23 L20,25.174 C20,26.179 20.821,27 21.826,27 L23.174,27 C24.179,27 25,26.179 25,25.174 L25,23 L26.8,23 C27.463,23 28,22.456 28,21.786 L28,15.416 C28,14.946 27.732,14.519 27.313,14.318 Z"></path>
  </symbol>
  <symbol id="carport" xmlns="http://www.w3.org/2000/svg" viewBox="0 0 32 32">
    <path d="M25.427,17.648 C25.777,17.813 26,18.165 26,18.551 L26,23.965 C26,24.516 25.553,24.963 25,24.963 L24,24.963 L24,26.488 C24,27.312 23.325,27.986 22.5,27.986 L21.5,27.986 C20.675,27.986 20,27.312 20,26.488 L20,24.963 L12,24.963 L12,26.461 C12,27.284 11.325,27.958 10.5,27.958 L9.5,27.958 C8.675,27.958 8,27.284 8,26.461 L8,24.963 L7,24.963 C6.447,24.963 6,24.516 6,23.965 L6,18.551 C6,18.165 6.223,17.813 6.573,17.648 L7.576,17.175 C7.845,17.049 8.043,16.81 8.117,16.522 L9.615,10.734 C9.729,10.294 10.128,9.986 10.584,9.986 L21.416,9.986 C21.872,9.986 22.271,10.294 22.385,10.734 L23.883,16.522 C23.957,16.81 24.155,17.049 24.424,17.175 L25.427,17.648 Z M22.5,22 C23.328,22 24,21.329 24,20.502 C24,19.675 23.328,19.005 22.5,19.005 C21.672,19.005 21,19.675 21,20.502 C21,21.329 21.672,22 22.5,22 Z M18,22 C18.55,22 19,21.551 19,21.002 C19,20.452 18.55,20.003 18,20.003 L14,20.003 C13.45,20.003 13,20.452 13,21.002 C13,21.551 13.45,22 14,22 L18,22 Z M9.5,19 C8.672,19 8,19.671 8,20.498 C8,21.325 8.672,21.995 9.5,21.995 C10.328,21.995 11,21.325 11,20.498 C11,19.671 10.328,19 9.5,19 Z M10.037,15.732 C9.855,16.367 10.36,16.992 11.055,16.992 L20.945,16.992 C21.64,16.992 22.145,16.367 21.963,15.732 L21.104,12.736 C20.979,12.302 20.563,12 20.087,12 L11.913,12 C11.437,12 11.021,12.302 10.896,12.736 L10.037,15.732 Z M31,4 C31.553,4 32,4.447 32,5 L32,27 C32,27.553 31.553,28 31,28 C30.447,28 30,27.553 30,27 L30,9 C30,8.447 29.553,8 29,8 L3,8 C2.447,8 2,8.447 2,9 L2,27 C2,27.553 1.553,28 1,28 C0.447,28 0,27.553 0,27 L0,5 C0,4.447 0.447,4 1,4 L2,4 L31,4 Z"></path>
  </symbol>
  <symbol id="front-door" xmlns="http://www.w3.org/2000/svg" viewBox="0 0 32 32">
    <path d="M21,20 C21,20.553 20.553,21 20,21 L12,21 C11.447,21 11,20.553 11,20 C11,19.447 11.447,19 12,19 L20,19 C20.553,19 21,19.447 21,20 Z M11,6 C11,5.447 11.447,5 12,5 L14,5 C14.553,5 15,5.447 15,6 L15,12 C15,12.553 14.553,13 14,13 L12,13 C11.447,13 11,12.553 11,12 L11,6 Z M10,17 C9.447,17 9,16.553 9,16 C9,15.447 9.447,15 10,15 C10.553,15 11,15.447 11,16 C11,16.553 10.553,17 10,17 Z M17,6 C17,5.447 17.447,5 18,5 L20,5 C20.553,5 21,5.447 21,6 L21,12 C21,12.553 20.553,13 20,13 L18,13 C17.447,13 17,12.553 17,12 L17,6 Z M24,1 L8,1 C7.447,1 7,1.447 7,2 L7,30 C7,30.553 7.447,31 8,31 L24,31 C24.553,31 25,30.553 25,30 L25,2 C25,1.447 24.553,1 24,1 Z"></path>
  </symbol>
  <symbol id="porch" xmlns="http://www.w3.org/2000/svg" viewBox="0 0 32 32">
    <path d="M13.786,25.705 L15.239,21.15 L18.365,20.692 L20.32,25.761 C18.185,26.087 15.9,26.073 13.786,25.705 Z M10.834,15.062 C11.521,14.96 12.595,14.801 13.818,14.62 L14.679,18.214 L11.724,18.654 L10.834,15.062 Z M19.767,17.455 L16.664,17.918 L15.806,14.33 C16.884,14.174 17.966,14.018 18.913,13.888 L19.767,17.455 Z M26.869,24.441 C26.595,23.962 25.983,23.795 25.505,24.067 C24.573,24.598 23.492,25.022 22.302,25.345 L20.393,20.395 L26,19.574 C25.766,17.937 24.252,16.799 22.615,17.029 L21.754,17.158 L20.906,13.623 C21.102,13.599 21.273,13.578 21.412,13.563 C21.977,13.575 22.435,14.035 22.435,14.602 C22.435,15.155 22.883,15.602 23.435,15.602 C23.988,15.602 24.435,15.155 24.435,14.602 C24.435,12.925 23.07,11.559 21.391,11.559 C21.373,11.559 21.358,11.569 21.34,11.57 C21.322,11.57 21.307,11.563 21.29,11.564 C19.552,11.741 12.477,12.795 10.349,13.112 L8.48,5.577 C8.25,4.65 7.419,4 6.465,4 L5,4 L9.443,22 L13.038,21.474 L11.834,25.248 C10.782,24.937 9.825,24.545 8.987,24.067 C8.508,23.795 7.896,23.962 7.623,24.441 C7.349,24.922 7.517,25.532 7.997,25.806 C9.215,26.499 10.627,27.041 12.192,27.419 C13.796,27.805 15.496,28 17.246,28 C18.996,28 20.696,27.805 22.3,27.419 C23.865,27.042 25.276,26.499 26.495,25.806 C26.974,25.532 27.142,24.922 26.869,24.441 Z"></path>
  </symbol>
  <symbol id="pool" xmlns="http://www.w3.org/2000/svg" viewBox="0 0 32 32">
    <path d="M27.996,18.963 L28,18.963 L28,22.546 C27.878,22.456 27.774,22.368 27.709,22.305 C27.051,21.642 25.968,21.044 24.766,21.032 C24.756,21.032 24.745,21.033 24.735,21.033 C24.613,21.033 24.489,21.037 24.364,21.049 C23.547,21.131 22.694,21.499 21.893,22.305 C20.528,23.68 19.259,22.647 18.907,22.305 C17.739,21.127 15.228,20.155 13.093,22.305 C11.728,23.68 10.458,22.647 10.108,22.305 C9.449,21.641 8.365,21.044 7.163,21.032 C6.229,21.021 5.223,21.365 4.29,22.305 C4.193,22.404 4.097,22.464 4,22.539 L4,18.963 L4.004,18.963 C4.01,18.712 4.104,18.464 4.293,18.273 C5.513,17.044 6.856,16.837 8,17.104 L8,7 C8,6.448 7.552,6 7,6 C6.448,6 6,6.448 6,7 C6,7.552 5.553,8 5,8 C4.447,8 4,7.552 4,7 C4,5.345 5.346,4 7,4 C8.655,4 10,5.345 10,7 L10,9 L17,9 L17,7 C17,6.448 16.552,6 16,6 C15.448,6 15,6.448 15,7 C15,7.552 14.553,8 14,8 C13.447,8 13,7.552 13,7 C13,5.345 14.346,4 16,4 C17.655,4 19,5.345 19,7 L19,18.354 C19.256,18.583 19.76,18.95 20.402,18.963 L20.473,18.963 C20.907,18.953 21.393,18.777 21.893,18.273 C24.026,16.125 26.537,17.094 27.707,18.273 C27.897,18.464 27.99,18.712 27.996,18.963 Z M13.093,18.273 C14.385,16.972 15.814,16.818 17,17.158 L17,16 L10,16 L10,18.173 C10.035,18.207 10.074,18.24 10.108,18.273 C10.322,18.483 10.885,18.949 11.602,18.963 L11.673,18.963 C12.107,18.953 12.593,18.777 13.093,18.273 Z M10,14 L17,14 L17,11 L10,11 L10,14 Z M26.2981,23.7066 C26.3001,23.7086 26.3041,23.7096 26.3061,23.7116 C26.3961,23.8026 27.0341,24.4166 28.0001,24.7616 L28.0001,27.9996 L4.0001,27.9996 L4.0001,24.7876 C4.6001,24.5836 5.1741,24.2366 5.6921,23.7126 C5.6961,23.7076 5.7021,23.7066 5.7071,23.7016 C6.0471,23.3546 6.3811,23.1596 6.6961,23.0666 C7.6451,22.7916 8.4261,23.4406 8.6951,23.7066 C8.6991,23.7106 8.7041,23.7116 8.7081,23.7156 C8.8071,23.8136 9.4631,24.4496 10.4591,24.7876 C11.9011,25.2796 13.3391,24.8926 14.5071,23.7016 C15.8731,22.3116 17.1431,23.3546 17.4931,23.7016 C17.5671,23.7756 18.2391,24.4416 19.2591,24.7876 C19.6671,24.9276 20.0741,24.9946 20.4761,24.9946 C21.4901,24.9946 22.4641,24.5576 23.3001,23.7076 C23.3031,23.7046 23.3061,23.7046 23.3091,23.7016 C23.4791,23.5276 23.6481,23.3926 23.8141,23.2886 C24.9731,22.5646 25.9851,23.3966 26.2981,23.7066 Z"></path>
  </symbol>

  <symbol id="attic" xmlns="http://www.w3.org/2000/svg" viewBox="0 0 32 32">
    <path d="M16.5610437,10.3684 L25.3140437,22.4314 C25.8100437,23.1124 25.3390437,24.0874 24.5140437,24.0874 L7.47704375,24.0874 C6.65004375,24.0874 6.18004375,23.1124 6.67604375,22.4304 L15.4390437,10.3674 C15.7200437,9.9814 16.2800437,9.9814 16.5610437,10.3684 Z M16.0000437,22.0784 C17.6570437,22.0784 19.0000437,20.7354 19.0000437,19.0784 C19.0000437,17.4214 17.6570437,16.0784 16.0000437,16.0784 C14.3430437,16.0784 13.0000437,17.4214 13.0000437,19.0784 C13.0000437,20.7354 14.3430437,22.0784 16.0000437,22.0784 Z M31.7939437,24.4505 C32.2949437,25.1175 31.8249437,26.0785 30.9969437,26.0785 L30.9539437,26.0785 C30.6409437,26.0785 30.3449437,25.9295 30.1549437,25.6755 L28.9299437,24.0305 L28.9469437,24.0305 L26.6669437,20.9945 L17.4599437,8.7325 L16.4609437,7.4025 C16.2309437,7.0965 15.7699437,7.0965 15.5389437,7.4025 L14.5399437,8.7325 L5.33294375,20.9945 L3.05294375,24.0305 L3.06994375,24.0305 L1.84494375,25.6755 C1.65494375,25.9295 1.35894375,26.0785 1.04594375,26.0785 L1.00294375,26.0785 C0.174943746,26.0785 -0.295056254,25.1175 0.205943746,24.4505 L1.45494375,22.7865 L3.73494375,19.7505 L12.9429437,7.4885 L14.4019437,5.5455 L15.2999437,4.3495 C15.6499437,3.8835 16.3499437,3.8835 16.6999437,4.3495 L17.5979437,5.5455 L19.0569437,7.4885 L21.9959437,11.4025 L21.9959437,9.1095 C21.9959437,8.5405 22.4439437,8.0785 22.9969437,8.0785 L24.9989437,8.0785 C25.5519437,8.0785 25.9999437,8.5405 25.9999437,9.1095 L25.9999437,16.7345 L28.2649437,19.7505 L30.5449437,22.7865 L31.7939437,24.4505 Z"></path>
  </symbol>
  <symbol id="garden" xmlns="http://www.w3.org/2000/svg" viewBox="0 0 32 32">
    <path d="M11,10.0003 C14.866,10.0003 18,13.1343 18,17.0003 C18,20.5473 15.359,23.4713 11.937,23.9303 L11.937,27.0003 C11.937,27.5533 11.49,28.0003 10.938,28.0003 C10.385,28.0003 9.938,27.5533 9.938,27.0003 L9.938,23.9113 C6.577,23.3973 4,20.5043 4,17.0003 C4,13.1343 7.134,10.0003 11,10.0003 Z M28,19.346 C28,22.592 25.632,22.954 23,22.994 L23,27 C23,27.553 22.553,28 22,28 C21.447,28 21,27.553 21,27 L21,22.992 C20.485,22.983 19.979,22.965 19.5,22.912 C18.78,22.833 18.426,22.028 18.781,21.398 C19.516,20.097 19.937,18.598 19.937,17 C19.937,14.84 19.167,12.861 17.893,11.308 C17.783,11.174 17.747,10.994 17.804,10.83 C19.075,7.17 20.764,4 22,4 C24.25,4 28,14.503 28,19.346 Z"></path>
  </symbol>
  <symbol id="terrace" xmlns="http://www.w3.org/2000/svg" viewBox="0 0 32 32">
    <path d="M27.5706164,8.5645 C27.9536164,8.8375 28.1166164,9.3515 27.9116164,9.7755 C27.5866164,10.4465 26.8926164,10.9705 26.0906164,10.9705 C25.5686164,10.9705 25.0926164,10.7495 24.7346164,10.4105 C24.3646164,10.0595 23.7796164,10.0595 23.4096164,10.4105 C23.0506164,10.7495 22.5756164,10.9705 22.0536164,10.9705 C21.5326164,10.9705 21.0566164,10.7495 20.6996164,10.4105 C20.3296164,10.0595 19.7436164,10.0595 19.3736164,10.4105 C19.0146164,10.7495 18.5396164,10.9705 18.0176164,10.9705 C17.6456164,10.9705 17.2996164,10.8545 17.0006164,10.6665 L17.0006164,17.9705 C17.0006164,18.5235 16.5526164,18.9705 16.0006164,18.9705 C15.4476164,18.9705 15.0006164,18.5235 15.0006164,17.9705 L15.0006164,10.6675 C14.7016164,10.8545 14.3546164,10.9705 13.9816164,10.9705 C13.4616164,10.9705 12.9856164,10.7495 12.6276164,10.4105 C12.2576164,10.0595 11.6716164,10.0595 11.3006164,10.4105 C10.9436164,10.7495 10.4676164,10.9705 9.94561644,10.9705 C9.42461644,10.9705 8.94961644,10.7495 8.59161644,10.4105 C8.22061644,10.0595 7.63461644,10.0595 7.26461644,10.4105 C6.90761644,10.7495 6.43161644,10.9705 5.91061644,10.9705 C5.10761644,10.9705 4.41461644,10.4465 4.08961644,9.7755 C3.88361644,9.3515 4.04761644,8.8375 4.42961644,8.5645 L15.3936164,0.2055 C15.7526164,-0.0685 16.2486164,-0.0685 16.6066164,0.2055 L27.5706164,8.5645 Z M23.0003164,19.9708 C24.1043164,19.9708 25.0003164,20.8668 25.0003164,21.9708 C25.0003164,23.0748 24.1043164,23.9708 23.0003164,23.9708 L18.5813164,23.9708 L23.7753164,30.3388 C24.1243164,30.7668 24.0603164,31.3968 23.6323164,31.7458 C23.4463164,31.8978 23.2233164,31.9708 23.0013164,31.9708 C22.7113164,31.9708 22.4233164,31.8448 22.2253164,31.6028 L16.0003164,23.9708 L9.77531644,31.6028 C9.42531644,32.0298 8.79631644,32.0948 8.36831644,31.7458 C7.94031644,31.3968 7.87631644,30.7668 8.22531644,30.3388 L13.4193164,23.9708 L9.00031644,23.9708 C7.89631644,23.9708 7.00031644,23.0748 7.00031644,21.9708 C7.00031644,20.8668 7.89631644,19.9708 9.00031644,19.9708 L23.0003164,19.9708 Z"></path>
  </symbol>
  <symbol id="balcony" xmlns="http://www.w3.org/2000/svg" viewBox="0 0 32 32">
    <path d="M24,12.278 C23.405,12.625 23,13.262 23,14 C23,14.737 23.405,15.375 24,15.721 L24,20.024 C23.917,20.019 23.838,20 23.754,20 L20,20 L20,15.721 C20.595,15.375 21,14.737 21,14 C21,13.262 20.595,12.625 20,12.278 L20,8 L24,8 L24,12.278 Z M8,20.024 L8,15.721 C8.595,15.375 9,14.737 9,14 C9,13.262 8.595,12.625 8,12.278 L8,8 L12,8 L12,12.278 C11.405,12.625 11,13.262 11,14 C11,14.737 11.405,15.375 12,15.721 L12,20 L8.246,20 C8.162,20 8.083,20.019 8,20.024 Z M18,12.278 C17.405,12.625 17,13.262 17,14 C17,14.737 17.405,15.375 18,15.721 L18,20 L14,20 L14,15.721 C14.595,15.375 15,14.737 15,14 C15,13.262 14.595,12.625 14,12.278 L14,8 L18,8 L18,12.278 Z M29,6 L3,6 C2.45,6 2,6.45 2,7 C2,7.549 2.45,8 3,8 L6,8 L6,12.278 C5.405,12.625 5,13.262 5,14 C5,14.737 5.405,15.375 6,15.721 L6,20.655 C4.803,21.406 4,22.728 4,24.246 C4,25.215 4.785,26 5.754,26 L26.246,26 C27.215,26 28,25.215 28,24.246 C28,22.728 27.197,21.406 26,20.655 L26,15.721 C26.595,15.375 27,14.737 27,14 C27,13.262 26.595,12.625 26,12.278 L26,8 L29,8 C29.55,8 30,7.549 30,7 C30,6.45 29.55,6 29,6 Z"></path>
  </symbol>
  <symbol id="driveway" xmlns="http://www.w3.org/2000/svg" viewBox="0 0 32 32">
    <path d="M24,20 C22.896,20 22,19.104 22,18 C22,16.896 22.896,16 24,16 C25.104,16 26,16.896 26,18 C26,19.104 25.104,20 24,20 Z M21.77,13 L10.23,13 C9.42,13 8.831,12.248 9.044,11.485 L10.046,7.886 C10.191,7.363 10.678,7 11.232,7 L20.768,7 C21.322,7 21.809,7.363 21.954,7.886 L22.956,11.485 C23.169,12.248 22.58,13 21.77,13 Z M20,18.594 C20,19.367 19.359,20 18.577,20 L13.423,20 C12.641,20 12,19.367 12,18.594 L12,18.406 C12,17.633 12.641,17 13.423,17 L18.577,17 C19.359,17 20,17.633 20,18.406 L20,18.594 Z M8,20 C6.896,20 6,19.104 6,18 C6,16.896 6.896,16 8,16 C9.104,16 10,16.896 10,18 C10,19.104 9.104,20 8,20 Z M27.313,14.318 L26.108,13.743 C25.786,13.589 25.549,13.298 25.459,12.949 L23.661,5.91 C23.524,5.374 23.047,5 22.499,5 L9.501,5 C8.953,5 8.476,5.374 8.339,5.91 L6.541,12.949 C6.451,13.298 6.214,13.589 5.892,13.743 L4.688,14.318 C4.268,14.519 4,14.946 4,15.416 L4,21.786 C4,22.456 4.537,23 5.2,23 L7,23 L7,25.174 C7,26.179 7.821,27 8.826,27 L10.174,27 C11.179,27 12,26.179 12,25.174 L12,23 L20,23 L20,25.174 C20,26.179 20.821,27 21.826,27 L23.174,27 C24.179,27 25,26.179 25,25.174 L25,23 L26.8,23 C27.463,23 28,22.456 28,21.786 L28,15.416 C28,14.946 27.732,14.519 27.313,14.318 Z"></path>
  </symbol>
  <symbol id="carport" xmlns="http://www.w3.org/2000/svg" viewBox="0 0 32 32">
    <path d="M25.427,17.648 C25.777,17.813 26,18.165 26,18.551 L26,23.965 C26,24.516 25.553,24.963 25,24.963 L24,24.963 L24,26.488 C24,27.312 23.325,27.986 22.5,27.986 L21.5,27.986 C20.675,27.986 20,27.312 20,26.488 L20,24.963 L12,24.963 L12,26.461 C12,27.284 11.325,27.958 10.5,27.958 L9.5,27.958 C8.675,27.958 8,27.284 8,26.461 L8,24.963 L7,24.963 C6.447,24.963 6,24.516 6,23.965 L6,18.551 C6,18.165 6.223,17.813 6.573,17.648 L7.576,17.175 C7.845,17.049 8.043,16.81 8.117,16.522 L9.615,10.734 C9.729,10.294 10.128,9.986 10.584,9.986 L21.416,9.986 C21.872,9.986 22.271,10.294 22.385,10.734 L23.883,16.522 C23.957,16.81 24.155,17.049 24.424,17.175 L25.427,17.648 Z M22.5,22 C23.328,22 24,21.329 24,20.502 C24,19.675 23.328,19.005 22.5,19.005 C21.672,19.005 21,19.675 21,20.502 C21,21.329 21.672,22 22.5,22 Z M18,22 C18.55,22 19,21.551 19,21.002 C19,20.452 18.55,20.003 18,20.003 L14,20.003 C13.45,20.003 13,20.452 13,21.002 C13,21.551 13.45,22 14,22 L18,22 Z M9.5,19 C8.672,19 8,19.671 8,20.498 C8,21.325 8.672,21.995 9.5,21.995 C10.328,21.995 11,21.325 11,20.498 C11,19.671 10.328,19 9.5,19 Z M10.037,15.732 C9.855,16.367 10.36,16.992 11.055,16.992 L20.945,16.992 C21.64,16.992 22.145,16.367 21.963,15.732 L21.104,12.736 C20.979,12.302 20.563,12 20.087,12 L11.913,12 C11.437,12 11.021,12.302 10.896,12.736 L10.037,15.732 Z M31,4 C31.553,4 32,4.447 32,5 L32,27 C32,27.553 31.553,28 31,28 C30.447,28 30,27.553 30,27 L30,9 C30,8.447 29.553,8 29,8 L3,8 C2.447,8 2,8.447 2,9 L2,27 C2,27.553 1.553,28 1,28 C0.447,28 0,27.553 0,27 L0,5 C0,4.447 0.447,4 1,4 L2,4 L31,4 Z"></path>
  </symbol>
  <symbol id="front-door" xmlns="http://www.w3.org/2000/svg" viewBox="0 0 32 32">
    <path d="M21,20 C21,20.553 20.553,21 20,21 L12,21 C11.447,21 11,20.553 11,20 C11,19.447 11.447,19 12,19 L20,19 C20.553,19 21,19.447 21,20 Z M11,6 C11,5.447 11.447,5 12,5 L14,5 C14.553,5 15,5.447 15,6 L15,12 C15,12.553 14.553,13 14,13 L12,13 C11.447,13 11,12.553 11,12 L11,6 Z M10,17 C9.447,17 9,16.553 9,16 C9,15.447 9.447,15 10,15 C10.553,15 11,15.447 11,16 C11,16.553 10.553,17 10,17 Z M17,6 C17,5.447 17.447,5 18,5 L20,5 C20.553,5 21,5.447 21,6 L21,12 C21,12.553 20.553,13 20,13 L18,13 C17.447,13 17,12.553 17,12 L17,6 Z M24,1 L8,1 C7.447,1 7,1.447 7,2 L7,30 C7,30.553 7.447,31 8,31 L24,31 C24.553,31 25,30.553 25,30 L25,2 C25,1.447 24.553,1 24,1 Z"></path>
  </symbol>
  <symbol id="porch" xmlns="http://www.w3.org/2000/svg" viewBox="0 0 32 32">
    <path d="M13.786,25.705 L15.239,21.15 L18.365,20.692 L20.32,25.761 C18.185,26.087 15.9,26.073 13.786,25.705 Z M10.834,15.062 C11.521,14.96 12.595,14.801 13.818,14.62 L14.679,18.214 L11.724,18.654 L10.834,15.062 Z M19.767,17.455 L16.664,17.918 L15.806,14.33 C16.884,14.174 17.966,14.018 18.913,13.888 L19.767,17.455 Z M26.869,24.441 C26.595,23.962 25.983,23.795 25.505,24.067 C24.573,24.598 23.492,25.022 22.302,25.345 L20.393,20.395 L26,19.574 C25.766,17.937 24.252,16.799 22.615,17.029 L21.754,17.158 L20.906,13.623 C21.102,13.599 21.273,13.578 21.412,13.563 C21.977,13.575 22.435,14.035 22.435,14.602 C22.435,15.155 22.883,15.602 23.435,15.602 C23.988,15.602 24.435,15.155 24.435,14.602 C24.435,12.925 23.07,11.559 21.391,11.559 C21.373,11.559 21.358,11.569 21.34,11.57 C21.322,11.57 21.307,11.563 21.29,11.564 C19.552,11.741 12.477,12.795 10.349,13.112 L8.48,5.577 C8.25,4.65 7.419,4 6.465,4 L5,4 L9.443,22 L13.038,21.474 L11.834,25.248 C10.782,24.937 9.825,24.545 8.987,24.067 C8.508,23.795 7.896,23.962 7.623,24.441 C7.349,24.922 7.517,25.532 7.997,25.806 C9.215,26.499 10.627,27.041 12.192,27.419 C13.796,27.805 15.496,28 17.246,28 C18.996,28 20.696,27.805 22.3,27.419 C23.865,27.042 25.276,26.499 26.495,25.806 C26.974,25.532 27.142,24.922 26.869,24.441 Z"></path>
  </symbol>
  <symbol id="barbecue" xmlns="http://www.w3.org/2000/svg" viewBox="0 0 32 32">
    <path fill="#101010" d="M12.29,22 L12.816,20.432 C13.811,20.793 14.869,21 15.973,21 C17.278,21 18.525,20.725 19.67,20.227 L20.265,22 L12.29,22 Z M27,12 C27.553,12 28,12.447 28,13 C28,13.553 27.553,14 27,14 L25.312,14 C24.546,16.15 23.18,17.969 21.439,19.214 L23.049,24.005 C24.13,24.031 25,24.912 25,26 C25,27.104 24.103,28 23,28 C21.894,28 21,27.104 21,26 C21,25.636 21.104,25.299 21.274,25.005 L20.936,24 L11.618,24 L10.504,27.318 C10.363,27.736 9.973,28 9.555,28 C9.449,28 9.342,27.982 9.236,27.947 C8.713,27.771 8.432,27.205 8.607,26.682 L11.005,19.543 C9.028,18.302 7.472,16.352 6.634,14 L5,14 C4.447,14 4,13.553 4,13 C4,12.447 4.447,12 5,12 L6.117,12 C6.068,11.707 6.024,11.412 5.997,11.111 C5.943,10.519 6.4,10 6.997,10 L24.949,10 C25.545,10 26.003,10.519 25.949,11.111 C25.922,11.412 25.878,11.707 25.829,12 L27,12 Z M12.7226,7.916 C12.6486,7.867 11.9996,7.414 11.9996,6.723 C11.9996,6.422 12.1246,5.982 12.7226,5.584 C12.9256,5.447 12.9996,5.334 12.9996,5.277 C12.9996,5.172 12.8356,4.994 12.7226,4.916 C12.4926,4.762 12.4296,4.451 12.5836,4.223 C12.6796,4.078 12.8376,4 12.9996,4 C13.0956,4 13.1916,4.027 13.2776,4.084 C13.3516,4.133 13.9996,4.586 13.9996,5.277 C13.9996,5.576 13.8746,6.018 13.2776,6.416 C13.0726,6.551 12.9996,6.666 12.9996,6.721 C12.9976,6.826 13.1616,7.004 13.2796,7.086 C13.5076,7.238 13.5686,7.549 13.4156,7.777 C13.2616,8.008 12.9496,8.068 12.7226,7.916 Z M15.7226,7.916 C15.6486,7.867 14.9996,7.414 14.9996,6.723 C14.9996,6.423 15.1246,5.982 15.7226,5.584 C15.9256,5.448 15.9996,5.334 15.9996,5.278 C15.9996,5.173 15.8356,4.995 15.7226,4.916 C15.4926,4.763 15.4296,4.452 15.5836,4.223 C15.6796,4.078 15.8376,4 15.9996,4 C16.0956,4 16.1916,4.027 16.2776,4.084 C16.3516,4.133 16.9996,4.586 16.9996,5.277 C16.9996,5.577 16.8746,6.018 16.2776,6.416 C16.0726,6.552 15.9996,6.666 15.9996,6.722 C15.9976,6.827 16.1616,7.005 16.2796,7.086 C16.5076,7.239 16.5686,7.549 16.4156,7.777 C16.2616,8.008 15.9496,8.068 15.7226,7.916 Z M18.7226,7.916 C18.6486,7.867 17.9996,7.414 17.9996,6.723 C17.9996,6.422 18.1246,5.982 18.7226,5.584 C18.9256,5.447 18.9996,5.334 18.9996,5.277 C18.9996,5.172 18.8356,4.994 18.7226,4.916 C18.4926,4.762 18.4296,4.451 18.5836,4.223 C18.6796,4.078 18.8376,4 18.9996,4 C19.0956,4 19.1916,4.027 19.2776,4.084 C19.3516,4.133 19.9996,4.586 19.9996,5.277 C19.9996,5.576 19.8746,6.018 19.2776,6.416 C19.0726,6.551 18.9996,6.666 18.9996,6.721 C18.9976,6.826 19.1616,7.004 19.2796,7.086 C19.5076,7.238 19.5686,7.549 19.4156,7.777 C19.2616,8.008 18.9496,8.068 18.7226,7.916 Z"/>
  </symbol>
  <symbol id="pool" xmlns="http://www.w3.org/2000/svg" viewBox="0 0 32 32">
    <path d="M27.996,18.963 L28,18.963 L28,22.546 C27.878,22.456 27.774,22.368 27.709,22.305 C27.051,21.642 25.968,21.044 24.766,21.032 C24.756,21.032 24.745,21.033 24.735,21.033 C24.613,21.033 24.489,21.037 24.364,21.049 C23.547,21.131 22.694,21.499 21.893,22.305 C20.528,23.68 19.259,22.647 18.907,22.305 C17.739,21.127 15.228,20.155 13.093,22.305 C11.728,23.68 10.458,22.647 10.108,22.305 C9.449,21.641 8.365,21.044 7.163,21.032 C6.229,21.021 5.223,21.365 4.29,22.305 C4.193,22.404 4.097,22.464 4,22.539 L4,18.963 L4.004,18.963 C4.01,18.712 4.104,18.464 4.293,18.273 C5.513,17.044 6.856,16.837 8,17.104 L8,7 C8,6.448 7.552,6 7,6 C6.448,6 6,6.448 6,7 C6,7.552 5.553,8 5,8 C4.447,8 4,7.552 4,7 C4,5.345 5.346,4 7,4 C8.655,4 10,5.345 10,7 L10,9 L17,9 L17,7 C17,6.448 16.552,6 16,6 C15.448,6 15,6.448 15,7 C15,7.552 14.553,8 14,8 C13.447,8 13,7.552 13,7 C13,5.345 14.346,4 16,4 C17.655,4 19,5.345 19,7 L19,18.354 C19.256,18.583 19.76,18.95 20.402,18.963 L20.473,18.963 C20.907,18.953 21.393,18.777 21.893,18.273 C24.026,16.125 26.537,17.094 27.707,18.273 C27.897,18.464 27.99,18.712 27.996,18.963 Z M13.093,18.273 C14.385,16.972 15.814,16.818 17,17.158 L17,16 L10,16 L10,18.173 C10.035,18.207 10.074,18.24 10.108,18.273 C10.322,18.483 10.885,18.949 11.602,18.963 L11.673,18.963 C12.107,18.953 12.593,18.777 13.093,18.273 Z M10,14 L17,14 L17,11 L10,11 L10,14 Z M26.2981,23.7066 C26.3001,23.7086 26.3041,23.7096 26.3061,23.7116 C26.3961,23.8026 27.0341,24.4166 28.0001,24.7616 L28.0001,27.9996 L4.0001,27.9996 L4.0001,24.7876 C4.6001,24.5836 5.1741,24.2366 5.6921,23.7126 C5.6961,23.7076 5.7021,23.7066 5.7071,23.7016 C6.0471,23.3546 6.3811,23.1596 6.6961,23.0666 C7.6451,22.7916 8.4261,23.4406 8.6951,23.7066 C8.6991,23.7106 8.7041,23.7116 8.7081,23.7156 C8.8071,23.8136 9.4631,24.4496 10.4591,24.7876 C11.9011,25.2796 13.3391,24.8926 14.5071,23.7016 C15.8731,22.3116 17.1431,23.3546 17.4931,23.7016 C17.5671,23.7756 18.2391,24.4416 19.2591,24.7876 C19.6671,24.9276 20.0741,24.9946 20.4761,24.9946 C21.4901,24.9946 22.4641,24.5576 23.3001,23.7076 C23.3031,23.7046 23.3061,23.7046 23.3091,23.7016 C23.4791,23.5276 23.6481,23.3926 23.8141,23.2886 C24.9731,22.5646 25.9851,23.3966 26.2981,23.7066 Z"></path>
  </symbol>
  <symbol id="downstairs" xmlns="http://www.w3.org/2000/svg" viewBox="0 0 32 32">
    <path d="M27.66,14.19,16.71,4.28a1,1,0,0,0-1.42,0L4.34,14.19A1,1,0,0,0,5.05,16H7V27a1,1,0,0,0,1,1H24a1,1,0,0,0,1-1V16H27A1,1,0,0,0,27.66,14.19ZM23,26H9V21H23Z"/>
  </symbol>
  <symbol id="upstairs" xmlns="http://www.w3.org/2000/svg" viewBox="0 0 32 32">
    <path d="M27.66,14.19,16.71,4.28a1,1,0,0,0 1.42,0L4.34,14.19A1,1,0,0,0,5.05,16H7V27a1,1,0,0,0,1,1H24a1,1,0,0,0,1-1V16H27A1,1,0,0,0,27.66,14.19ZM23,21H9V16H23Z"/>
  </symbol>
  <symbol id="top-floor" xmlns="http://www.w3.org/2000/svg" viewBox="0 0 32 32">
    <path d="M27.66,14.19,16.71,4.28a1,1,0,0,0-1.42,0L4.34,14.19A1,1,0,0,0,5.05,16H7V27a1,1,0,0,0,1,1H24a1,1,0,0,0,1-1V16H27A1,1,0,0,0,27.66,14.19ZM7.53,14,16,6.33,24.47,14Z"/>
  </symbol>
  <symbol id="attic" xmlns="http://www.w3.org/2000/svg" viewBox="0 0 32 32">
    <path d="M16.5610437,10.3684 L25.3140437,22.4314 C25.8100437,23.1124 25.3390437,24.0874 24.5140437,24.0874 L7.47704375,24.0874 C6.65004375,24.0874 6.18004375,23.1124 6.67604375,22.4304 L15.4390437,10.3674 C15.7200437,9.9814 16.2800437,9.9814 16.5610437,10.3684 Z M16.0000437,22.0784 C17.6570437,22.0784 19.0000437,20.7354 19.0000437,19.0784 C19.0000437,17.4214 17.6570437,16.0784 16.0000437,16.0784 C14.3430437,16.0784 13.0000437,17.4214 13.0000437,19.0784 C13.0000437,20.7354 14.3430437,22.0784 16.0000437,22.0784 Z M31.7939437,24.4505 C32.2949437,25.1175 31.8249437,26.0785 30.9969437,26.0785 L30.9539437,26.0785 C30.6409437,26.0785 30.3449437,25.9295 30.1549437,25.6755 L28.9299437,24.0305 L28.9469437,24.0305 L26.6669437,20.9945 L17.4599437,8.7325 L16.4609437,7.4025 C16.2309437,7.0965 15.7699437,7.0965 15.5389437,7.4025 L14.5399437,8.7325 L5.33294375,20.9945 L3.05294375,24.0305 L3.06994375,24.0305 L1.84494375,25.6755 C1.65494375,25.9295 1.35894375,26.0785 1.04594375,26.0785 L1.00294375,26.0785 C0.174943746,26.0785 -0.295056254,25.1175 0.205943746,24.4505 L1.45494375,22.7865 L3.73494375,19.7505 L12.9429437,7.4885 L14.4019437,5.5455 L15.2999437,4.3495 C15.6499437,3.8835 16.3499437,3.8835 16.6999437,4.3495 L17.5979437,5.5455 L19.0569437,7.4885 L21.9959437,11.4025 L21.9959437,9.1095 C21.9959437,8.5405 22.4439437,8.0785 22.9969437,8.0785 L24.9989437,8.0785 C25.5519437,8.0785 25.9999437,8.5405 25.9999437,9.1095 L25.9999437,16.7345 L28.2649437,19.7505 L30.5449437,22.7865 L31.7939437,24.4505 Z"></path>
  </symbol>
  <symbol id="home" xmlns="http://www.w3.org/2000/svg" viewBox="0 0 32 32">
    <path d="M27.6631,14.191252 L16.7081,4.27825203 C16.3091,3.90825203 15.6921,3.90725203 15.2921,4.27525203 L4.3401,14.188252 C3.6391,14.832252 4.0951,16.000252 5.0471,16.000252 L6.9891,16.000252 L6.9761,27.000252 C6.9761,27.552252 7.4241,28.000252 7.9761,28.000252 L16.9871,28.000252 L16.9871,22.000252 C16.9871,21.447252 17.4351,21.000252 17.9881,21.000252 L19.9901,21.000252 C20.5441,21.000252 20.9921,21.447252 20.9921,22.000252 L20.9921,28.000252 L21.0061,28.000252 L23.9851,28.000252 C24.5381,28.000252 24.9861,27.552252 24.9861,27.000252 L25.0001,16.000252 L26.9531,16.000252 C27.9031,16.000252 28.3601,14.836252 27.6631,14.191252"></path>
  </symbol>
</defs>
</svg>
